<svg width="393" height="349" viewBox="0 0 393 349" fill="none" xmlns="http://www.w3.org/2000/svg">
<mask id="mask0_508_235" style="mask-type:alpha" maskUnits="userSpaceOnUse" x="0" y="-4" width="393" height="353">
<rect y="-4" width="393" height="353" fill="#D9D9D9"/>
</mask>
<g mask="url(#mask0_508_235)">
<rect x="0.03125" y="-503.5" width="393" height="852" fill="url(#paint0_linear_508_235)"/>
<path d="M0.0634766 -503.5H393.032V235.5C393.032 235.5 308.032 101.5 198.032 155C88.0319 208.5 0.0634766 220.5 0.0634766 220.5V-503.5Z" fill="url(#paint1_linear_508_235)"/>
<path d="M0.0315435 -504H393.032V129.5C393.032 129.5 301.032 42 147.532 29C-5.96838 16 0.0315435 129.5 0.0315435 129.5V-504Z" fill="url(#paint2_linear_508_235)"/>
<path d="M324.369 -131.925C325.226 -132.292 326.088 -132.651 326.954 -133H427.046C427.912 -132.651 428.774 -132.292 429.631 -131.925H324.369Z" stroke="#5A84CF" stroke-opacity="0.48" stroke-width="3"/>
<path d="M304.227 -121.178C304.786 -121.541 305.347 -121.899 305.911 -122.253H448.089C448.653 -121.899 449.214 -121.541 449.773 -121.178H304.227Z" stroke="#5A84CF" stroke-opacity="0.48" stroke-width="3"/>
<path d="M291.131 -111.506C290.706 -111.151 290.283 -110.792 289.863 -110.432H464.137C463.717 -110.792 463.294 -111.151 462.869 -111.506H291.131Z" stroke="#5A84CF" stroke-opacity="0.48" stroke-width="3"/>
<path d="M278.699 -99.6846C279.033 -100.045 279.368 -100.403 279.705 -100.759H474.295C474.632 -100.403 474.967 -100.045 475.301 -99.6846H278.699Z" stroke="#5A84CF" stroke-opacity="0.48" stroke-width="3"/>
<path d="M270.55 -90.0125C270.277 -89.6556 270.006 -89.2974 269.736 -88.9378H348.582C349.713 -89.3183 350.855 -89.6767 352.005 -90.0125H270.55Z" stroke="#5A84CF" stroke-opacity="0.48" stroke-width="3"/>
<path d="M401.995 -90.0125C403.145 -89.6767 404.287 -89.3183 405.418 -88.9378H484.264C483.994 -89.2974 483.723 -89.6556 483.45 -90.0125H401.995Z" stroke="#5A84CF" stroke-opacity="0.48" stroke-width="3"/>
<path d="M328.567 -79.2656H263.123C262.901 -78.9084 262.68 -78.5502 262.461 -78.1909H326.948C327.484 -78.5548 328.023 -78.9131 328.567 -79.2656Z" stroke="#5A84CF" stroke-opacity="0.48" stroke-width="3"/>
<path d="M427.052 -78.1909C426.516 -78.5548 425.977 -78.9131 425.433 -79.2656H490.877C491.099 -78.9084 491.32 -78.5502 491.539 -78.1909H427.052Z" stroke="#5A84CF" stroke-opacity="0.48" stroke-width="3"/>
<path d="M315.051 -68.5187H257.107C256.928 -68.1614 256.75 -67.8031 256.574 -67.444H313.957C314.319 -67.8053 314.683 -68.1636 315.051 -68.5187Z" stroke="#5A84CF" stroke-opacity="0.48" stroke-width="3"/>
<path d="M440.043 -67.444C439.681 -67.8053 439.317 -68.1636 438.949 -68.5187H496.893C497.072 -68.1614 497.25 -67.8031 497.426 -67.444H440.043Z" stroke="#5A84CF" stroke-opacity="0.48" stroke-width="3"/>
<path d="M305.566 -57.7718H252.302C252.161 -57.4143 252.021 -57.0561 251.883 -56.6971H304.772C305.034 -57.0574 305.299 -57.4156 305.566 -57.7718Z" stroke="#5A84CF" stroke-opacity="0.48" stroke-width="3"/>
<path d="M449.228 -56.6971C448.966 -57.0574 448.701 -57.4156 448.434 -57.7718H501.698C501.839 -57.4143 501.979 -57.0561 502.117 -56.6971H449.228Z" stroke="#5A84CF" stroke-opacity="0.48" stroke-width="3"/>
<path d="M298.644 -47.0249H248.576C248.469 -46.6673 248.363 -46.3091 248.259 -45.9502H298.065C298.256 -46.3099 298.449 -46.6681 298.644 -47.0249Z" stroke="#5A84CF" stroke-opacity="0.48" stroke-width="3"/>
<path d="M455.935 -45.9502C455.744 -46.3099 455.551 -46.6681 455.356 -47.0249H505.424C505.531 -46.6673 505.637 -46.3091 505.741 -45.9502H455.935Z" stroke="#5A84CF" stroke-opacity="0.48" stroke-width="3"/>
<path d="M293.656 -36.278H245.837C245.761 -35.9203 245.687 -35.5621 245.614 -35.2033H293.25C293.383 -35.5627 293.519 -35.9209 293.656 -36.278Z" stroke="#5A84CF" stroke-opacity="0.48" stroke-width="3"/>
<path d="M460.75 -35.2033C460.617 -35.5627 460.481 -35.9209 460.344 -36.278H508.163C508.239 -35.9203 508.313 -35.5621 508.385 -35.2033H460.75Z" stroke="#5A84CF" stroke-opacity="0.48" stroke-width="3"/>
<path d="M290.274 -25.5311H244.021C243.975 -25.1733 243.931 -24.8151 243.888 -24.4564H290.017C290.1 -24.8155 290.186 -25.1737 290.274 -25.5311Z" stroke="#5A84CF" stroke-opacity="0.48" stroke-width="3"/>
<path d="M463.983 -24.4564C463.9 -24.8155 463.814 -25.1737 463.726 -25.5311H509.979C510.025 -25.1733 510.069 -24.8151 510.112 -24.4564H463.983Z" stroke="#5A84CF" stroke-opacity="0.48" stroke-width="3"/>
<path d="M288.313 -14.7842H243.084C243.068 -14.4264 243.052 -14.0681 243.038 -13.7095H288.19C288.229 -14.0684 288.27 -14.4267 288.313 -14.7842Z" stroke="#5A84CF" stroke-opacity="0.48" stroke-width="3"/>
<path d="M465.81 -13.7095C465.771 -14.0684 465.73 -14.4267 465.687 -14.7842H510.916C510.932 -14.4264 510.948 -14.0681 510.962 -13.7095H465.81Z" stroke="#5A84CF" stroke-opacity="0.48" stroke-width="3"/>
<path d="M287.667 -4.03734H243C243.011 -3.67876 243.024 -3.32053 243.038 -2.96266H287.672C287.668 -3.29072 287.667 -3.61921 287.667 -3.9481C287.667 -3.97786 287.667 -4.0076 287.667 -4.03734Z" stroke="#5A84CF" stroke-opacity="0.48" stroke-width="3"/>
<path d="M466.328 -2.96266C466.332 -3.29072 466.333 -3.61921 466.333 -3.9481C466.333 -3.97786 466.333 -4.0076 466.333 -4.03734H511C510.997 -3.92806 510.993 -3.81883 510.989 -3.70963C510.981 -3.46046 510.972 -3.21148 510.962 -2.96266H466.328Z" stroke="#5A84CF" stroke-opacity="0.48" stroke-width="3"/>
<path d="M288.292 6.70955H243.764C243.804 7.0682 243.845 7.42644 243.888 7.78423H288.425C288.379 7.42666 288.334 7.06843 288.292 6.70955Z" stroke="#5A84CF" stroke-opacity="0.48" stroke-width="3"/>
<path d="M465.575 7.78423C465.621 7.42666 465.666 7.06843 465.708 6.70955H510.236C510.196 7.0682 510.155 7.42644 510.112 7.78423H465.575Z" stroke="#5A84CF" stroke-opacity="0.48" stroke-width="3"/>
<path d="M290.231 17.4564H245.401C245.471 17.8152 245.542 18.1734 245.614 18.5311H290.5C290.408 18.1737 290.318 17.8155 290.231 17.4564Z" stroke="#5A84CF" stroke-opacity="0.48" stroke-width="3"/>
<path d="M463.5 18.5311C463.592 18.1737 463.682 17.8155 463.769 17.4564H508.599C508.529 17.8152 508.458 18.1734 508.385 18.5311H463.5Z" stroke="#5A84CF" stroke-opacity="0.48" stroke-width="3"/>
<path d="M293.588 28.2033H247.952C248.053 28.5621 248.155 28.9204 248.259 29.278H294.007C293.865 28.9209 293.725 28.5627 293.588 28.2033Z" stroke="#5A84CF" stroke-opacity="0.48" stroke-width="3"/>
<path d="M459.992 29.278C460.135 28.9209 460.275 28.5627 460.412 28.2033H506.048C505.947 28.5621 505.845 28.9204 505.741 29.278H459.992Z" stroke="#5A84CF" stroke-opacity="0.48" stroke-width="3"/>
<path d="M298.547 38.9502H251.474C251.609 39.3092 251.745 39.6674 251.883 40.0249H299.141C298.941 39.6682 298.743 39.3099 298.547 38.9502Z" stroke="#5A84CF" stroke-opacity="0.48" stroke-width="3"/>
<path d="M454.859 40.0249C455.059 39.6682 455.257 39.3099 455.453 38.9502H502.526C502.391 39.3092 502.255 39.6674 502.117 40.0249H454.859Z" stroke="#5A84CF" stroke-opacity="0.48" stroke-width="3"/>
<path d="M305.432 49.6971H256.054C256.226 50.0562 256.399 50.4144 256.574 50.7718H306.247C305.973 50.4157 305.701 50.0574 305.432 49.6971Z" stroke="#5A84CF" stroke-opacity="0.48" stroke-width="3"/>
<path d="M447.753 50.7718C448.027 50.4157 448.299 50.0574 448.568 49.6971H497.946C497.774 50.0562 497.601 50.4144 497.426 50.7718H447.753Z" stroke="#5A84CF" stroke-opacity="0.48" stroke-width="3"/>
<path d="M314.867 60.444H261.814C262.028 60.8033 262.244 61.1615 262.461 61.5187H315.992C315.614 61.1637 315.239 60.8054 314.867 60.444Z" stroke="#5A84CF" stroke-opacity="0.48" stroke-width="3"/>
<path d="M438.008 61.5187C438.386 61.1637 438.761 60.8054 439.133 60.444H492.186C491.972 60.8033 491.756 61.1615 491.539 61.5187H438.008Z" stroke="#5A84CF" stroke-opacity="0.48" stroke-width="3"/>
<path d="M328.292 71.1909H268.939C269.203 71.5505 269.469 71.9087 269.736 72.2655H329.977C329.411 71.9134 328.85 71.5552 328.292 71.1909Z" stroke="#5A84CF" stroke-opacity="0.48" stroke-width="3"/>
<path d="M424.023 72.2655C424.589 71.9134 425.15 71.5552 425.708 71.1909H485.061C484.797 71.5505 484.531 71.9087 484.264 72.2655H424.023Z" stroke="#5A84CF" stroke-opacity="0.48" stroke-width="3"/>
<path d="M351.402 81.9377H277.715C278.041 82.2978 278.369 82.656 278.699 83.0124H355.314C353.998 82.6832 352.694 82.3248 351.402 81.9377Z" stroke="#5A84CF" stroke-opacity="0.48" stroke-width="3"/>
<path d="M398.686 83.0124C400.002 82.6832 401.306 82.3248 402.598 81.9377H476.285C475.959 82.2978 475.631 82.656 475.301 83.0124H398.686Z" stroke="#5A84CF" stroke-opacity="0.48" stroke-width="3"/>
<path d="M289.863 93.7593C289.448 93.4036 289.035 93.0453 288.625 92.6846H465.375C464.965 93.0453 464.552 93.4036 464.137 93.7593H289.863Z" stroke="#5A84CF" stroke-opacity="0.48" stroke-width="3"/>
<path d="M302.597 103.432C303.138 103.794 303.681 104.152 304.227 104.506H449.773C450.319 104.152 450.862 103.794 451.403 103.432H302.597Z" stroke="#5A84CF" stroke-opacity="0.48" stroke-width="3"/>
<path d="M324.369 115.253C323.55 114.903 322.736 114.545 321.926 114.178H432.074C431.264 114.545 430.45 114.903 429.631 115.253H324.369Z" stroke="#5A84CF" stroke-opacity="0.48" stroke-width="3"/>
<path d="M377 126C382.772 126 388.459 125.635 394.039 124.925H359.961C365.541 125.635 371.228 126 377 126Z" stroke="#5A84CF" stroke-opacity="0.48" stroke-width="3"/>
<path d="M91.2864 14.6989C91.6519 15.3321 92.0078 15.9714 92.354 16.6168C91.7253 16.2054 91.3051 15.5018 91.2864 14.6989Z" fill="#618CD8" fill-opacity="0.62"/>
<path d="M78.3799 -1.5745C79.4783 -0.543734 80.5437 0.521727 81.5745 1.62012C81.1759 2.35678 80.3964 2.85714 79.5 2.85714C78.1982 2.85714 77.1429 1.80182 77.1429 0.5C77.1429 -0.396387 77.6432 -1.17591 78.3799 -1.5745Z" fill="#618CD8" fill-opacity="0.62"/>
<path d="M63.3832 -12.354C64.0286 -12.0078 64.6679 -11.6519 65.3011 -11.2864C64.4982 -11.3051 63.7946 -11.7253 63.3832 -12.354Z" fill="#618CD8" fill-opacity="0.62"/>
<path d="M-5.30108 -11.2864C-4.66792 -11.6519 -4.02857 -12.0078 -3.38322 -12.354C-3.79456 -11.7253 -4.49817 -11.3051 -5.30108 -11.2864Z" fill="#618CD8" fill-opacity="0.62"/>
<path d="M-21.5745 1.62012C-20.5437 0.521725 -19.4783 -0.543734 -18.3799 -1.5745C-17.6432 -1.17591 -17.1429 -0.396387 -17.1429 0.5C-17.1429 1.80182 -18.1982 2.85714 -19.5 2.85714C-20.3964 2.85714 -21.1759 2.35678 -21.5745 1.62012Z" fill="#618CD8" fill-opacity="0.62"/>
<path d="M-32.354 16.6168C-32.0078 15.9714 -31.6519 15.3321 -31.2864 14.6989C-31.3051 15.5018 -31.7253 16.2054 -32.354 16.6168Z" fill="#618CD8" fill-opacity="0.62"/>
<path d="M92.354 83.3832C92.0078 84.0286 91.6519 84.6679 91.2864 85.3011C91.3051 84.4982 91.7253 83.7946 92.354 83.3832Z" fill="#618CD8" fill-opacity="0.62"/>
<path d="M81.5745 98.3799C81.1759 97.6432 80.3964 97.1429 79.5 97.1429C78.1982 97.1429 77.1429 98.1982 77.1429 99.5C77.1429 100.396 77.6432 101.176 78.3799 101.575C79.4783 100.544 80.5437 99.4783 81.5745 98.3799Z" fill="#618CD8" fill-opacity="0.62"/>
<path d="M65.3011 111.286C64.4982 111.305 63.7946 111.725 63.3832 112.354C64.0286 112.008 64.6679 111.652 65.3011 111.286Z" fill="#618CD8" fill-opacity="0.62"/>
<path d="M-3.38322 112.354C-3.79456 111.725 -4.49817 111.305 -5.30108 111.286C-4.66792 111.652 -4.02857 112.008 -3.38322 112.354Z" fill="#618CD8" fill-opacity="0.62"/>
<path d="M-18.3799 101.575C-17.6432 101.176 -17.1429 100.396 -17.1429 99.5C-17.1429 98.1982 -18.1982 97.1429 -19.5 97.1429C-20.3964 97.1429 -21.1759 97.6432 -21.5745 98.3799C-20.5437 99.4783 -19.4783 100.544 -18.3799 101.575Z" fill="#618CD8" fill-opacity="0.62"/>
<path d="M-31.2864 85.3011C-31.3051 84.4982 -31.7253 83.7946 -32.354 83.3832C-32.0078 84.0286 -31.6519 84.6679 -31.2864 85.3011Z" fill="#618CD8" fill-opacity="0.62"/>
<path d="M11.1429 -13.6429C11.1429 -12.341 10.0875 -11.2857 8.78572 -11.2857C7.4839 -11.2857 6.42857 -12.341 6.42857 -13.6429C6.42857 -14.9447 7.4839 -16 8.78572 -16C10.0875 -16 11.1429 -14.9447 11.1429 -13.6429Z" fill="#618CD8" fill-opacity="0.62"/>
<path d="M25.2857 -13.6429C25.2857 -12.341 24.2304 -11.2857 22.9286 -11.2857C21.6268 -11.2857 20.5714 -12.341 20.5714 -13.6429C20.5714 -14.9447 21.6268 -16 22.9286 -16C24.2304 -16 25.2857 -14.9447 25.2857 -13.6429Z" fill="#618CD8" fill-opacity="0.62"/>
<path d="M39.4286 -13.6429C39.4286 -12.341 38.3732 -11.2857 37.0714 -11.2857C35.7696 -11.2857 34.7143 -12.341 34.7143 -13.6429C34.7143 -14.9447 35.7696 -16 37.0714 -16C38.3732 -16 39.4286 -14.9447 39.4286 -13.6429Z" fill="#618CD8" fill-opacity="0.62"/>
<path d="M53.5714 -13.6429C53.5714 -12.341 52.5161 -11.2857 51.2143 -11.2857C49.9125 -11.2857 48.8571 -12.341 48.8571 -13.6429C48.8571 -14.9447 49.9125 -16 51.2143 -16C52.5161 -16 53.5714 -14.9447 53.5714 -13.6429Z" fill="#618CD8" fill-opacity="0.62"/>
<path d="M-3 0.5C-3 1.80182 -4.05533 2.85714 -5.35714 2.85714C-6.65896 2.85714 -7.71428 1.80182 -7.71428 0.5C-7.71428 -0.801813 -6.65896 -1.85714 -5.35714 -1.85714C-4.05533 -1.85714 -3 -0.801813 -3 0.5Z" fill="#618CD8" fill-opacity="0.62"/>
<path d="M11.1429 0.5C11.1429 1.80182 10.0875 2.85714 8.78572 2.85714C7.4839 2.85714 6.42857 1.80182 6.42857 0.5C6.42857 -0.801813 7.4839 -1.85714 8.78572 -1.85714C10.0875 -1.85714 11.1429 -0.801813 11.1429 0.5Z" fill="#618CD8" fill-opacity="0.62"/>
<path d="M25.2857 0.5C25.2857 1.80182 24.2304 2.85714 22.9286 2.85714C21.6268 2.85714 20.5714 1.80182 20.5714 0.5C20.5714 -0.801813 21.6268 -1.85714 22.9286 -1.85714C24.2304 -1.85714 25.2857 -0.801813 25.2857 0.5Z" fill="#618CD8" fill-opacity="0.62"/>
<path d="M39.4286 0.5C39.4286 1.80182 38.3732 2.85714 37.0714 2.85714C35.7696 2.85714 34.7143 1.80182 34.7143 0.5C34.7143 -0.801813 35.7696 -1.85714 37.0714 -1.85714C38.3732 -1.85714 39.4286 -0.801813 39.4286 0.5Z" fill="#618CD8" fill-opacity="0.62"/>
<path d="M53.5714 0.5C53.5714 1.80182 52.5161 2.85714 51.2143 2.85714C49.9125 2.85714 48.8571 1.80182 48.8571 0.5C48.8571 -0.801813 49.9125 -1.85714 51.2143 -1.85714C52.5161 -1.85714 53.5714 -0.801813 53.5714 0.5Z" fill="#618CD8" fill-opacity="0.62"/>
<path d="M67.7143 0.5C67.7143 1.80182 66.659 2.85714 65.3571 2.85714C64.0553 2.85714 63 1.80182 63 0.5C63 -0.801813 64.0553 -1.85714 65.3571 -1.85714C66.659 -1.85714 67.7143 -0.801813 67.7143 0.5Z" fill="#618CD8" fill-opacity="0.62"/>
<path d="M-17.1429 14.6429C-17.1429 15.9447 -18.1982 17 -19.5 17C-20.8018 17 -21.8571 15.9447 -21.8571 14.6429C-21.8571 13.341 -20.8018 12.2857 -19.5 12.2857C-18.1982 12.2857 -17.1429 13.341 -17.1429 14.6429Z" fill="#618CD8" fill-opacity="0.62"/>
<path d="M-3 14.6429C-3 15.9447 -4.05533 17 -5.35714 17C-6.65896 17 -7.71428 15.9447 -7.71428 14.6429C-7.71428 13.341 -6.65896 12.2857 -5.35714 12.2857C-4.05533 12.2857 -3 13.341 -3 14.6429Z" fill="#618CD8" fill-opacity="0.62"/>
<path d="M11.1429 14.6429C11.1429 15.9447 10.0875 17 8.78572 17C7.4839 17 6.42857 15.9447 6.42857 14.6429C6.42857 13.341 7.4839 12.2857 8.78572 12.2857C10.0875 12.2857 11.1429 13.341 11.1429 14.6429Z" fill="#618CD8" fill-opacity="0.62"/>
<path d="M25.2857 14.6429C25.2857 15.9447 24.2304 17 22.9286 17C21.6268 17 20.5714 15.9447 20.5714 14.6429C20.5714 13.341 21.6268 12.2857 22.9286 12.2857C24.2304 12.2857 25.2857 13.341 25.2857 14.6429Z" fill="#618CD8" fill-opacity="0.62"/>
<path d="M39.4286 14.6429C39.4286 15.9447 38.3732 17 37.0714 17C35.7696 17 34.7143 15.9447 34.7143 14.6429C34.7143 13.341 35.7696 12.2857 37.0714 12.2857C38.3732 12.2857 39.4286 13.341 39.4286 14.6429Z" fill="#618CD8" fill-opacity="0.62"/>
<path d="M53.5714 14.6429C53.5714 15.9447 52.5161 17 51.2143 17C49.9125 17 48.8571 15.9447 48.8571 14.6429C48.8571 13.341 49.9125 12.2857 51.2143 12.2857C52.5161 12.2857 53.5714 13.341 53.5714 14.6429Z" fill="#618CD8" fill-opacity="0.62"/>
<path d="M67.7143 14.6429C67.7143 15.9447 66.659 17 65.3571 17C64.0553 17 63 15.9447 63 14.6429C63 13.341 64.0553 12.2857 65.3571 12.2857C66.659 12.2857 67.7143 13.341 67.7143 14.6429Z" fill="#618CD8" fill-opacity="0.62"/>
<path d="M81.8571 14.6429C81.8571 15.9447 80.8018 17 79.5 17C78.1982 17 77.1429 15.9447 77.1429 14.6429C77.1429 13.341 78.1982 12.2857 79.5 12.2857C80.8018 12.2857 81.8571 13.341 81.8571 14.6429Z" fill="#618CD8" fill-opacity="0.62"/>
<path d="M-31.2857 28.7857C-31.2857 30.0875 -32.341 31.1429 -33.6429 31.1429C-34.9447 31.1429 -36 30.0875 -36 28.7857C-36 27.4839 -34.9447 26.4286 -33.6429 26.4286C-32.341 26.4286 -31.2857 27.4839 -31.2857 28.7857Z" fill="#618CD8" fill-opacity="0.62"/>
<path d="M-17.1429 28.7857C-17.1429 30.0875 -18.1982 31.1429 -19.5 31.1429C-20.8018 31.1429 -21.8571 30.0875 -21.8571 28.7857C-21.8571 27.4839 -20.8018 26.4286 -19.5 26.4286C-18.1982 26.4286 -17.1429 27.4839 -17.1429 28.7857Z" fill="#618CD8" fill-opacity="0.62"/>
<path d="M-3 28.7857C-3 30.0875 -4.05533 31.1429 -5.35714 31.1429C-6.65896 31.1429 -7.71428 30.0875 -7.71428 28.7857C-7.71428 27.4839 -6.65896 26.4286 -5.35714 26.4286C-4.05533 26.4286 -3 27.4839 -3 28.7857Z" fill="#618CD8" fill-opacity="0.62"/>
<path d="M11.1429 28.7857C11.1429 30.0875 10.0875 31.1429 8.78572 31.1429C7.4839 31.1429 6.42857 30.0875 6.42857 28.7857C6.42857 27.4839 7.4839 26.4286 8.78572 26.4286C10.0875 26.4286 11.1429 27.4839 11.1429 28.7857Z" fill="#618CD8" fill-opacity="0.62"/>
<path d="M25.2857 28.7857C25.2857 30.0875 24.2304 31.1429 22.9286 31.1429C21.6268 31.1429 20.5714 30.0875 20.5714 28.7857C20.5714 27.4839 21.6268 26.4286 22.9286 26.4286C24.2304 26.4286 25.2857 27.4839 25.2857 28.7857Z" fill="#618CD8" fill-opacity="0.62"/>
<path d="M39.4286 28.7857C39.4286 30.0875 38.3732 31.1429 37.0714 31.1429C35.7696 31.1429 34.7143 30.0875 34.7143 28.7857C34.7143 27.4839 35.7696 26.4286 37.0714 26.4286C38.3732 26.4286 39.4286 27.4839 39.4286 28.7857Z" fill="#618CD8" fill-opacity="0.62"/>
<path d="M53.5714 28.7857C53.5714 30.0875 52.5161 31.1429 51.2143 31.1429C49.9125 31.1429 48.8571 30.0875 48.8571 28.7857C48.8571 27.4839 49.9125 26.4286 51.2143 26.4286C52.5161 26.4286 53.5714 27.4839 53.5714 28.7857Z" fill="#618CD8" fill-opacity="0.62"/>
<path d="M67.7143 28.7857C67.7143 30.0875 66.659 31.1429 65.3571 31.1429C64.0553 31.1429 63 30.0875 63 28.7857C63 27.4839 64.0553 26.4286 65.3571 26.4286C66.659 26.4286 67.7143 27.4839 67.7143 28.7857Z" fill="#618CD8" fill-opacity="0.62"/>
<path d="M81.8571 28.7857C81.8571 30.0875 80.8018 31.1429 79.5 31.1429C78.1982 31.1429 77.1429 30.0875 77.1429 28.7857C77.1429 27.4839 78.1982 26.4286 79.5 26.4286C80.8018 26.4286 81.8571 27.4839 81.8571 28.7857Z" fill="#618CD8" fill-opacity="0.62"/>
<path d="M96 28.7857C96 30.0875 94.9447 31.1429 93.6429 31.1429C92.341 31.1429 91.2857 30.0875 91.2857 28.7857C91.2857 27.4839 92.341 26.4286 93.6429 26.4286C94.9447 26.4286 96 27.4839 96 28.7857Z" fill="#618CD8" fill-opacity="0.62"/>
<path d="M-31.2857 42.9286C-31.2857 44.2304 -32.341 45.2857 -33.6429 45.2857C-34.9447 45.2857 -36 44.2304 -36 42.9286C-36 41.6268 -34.9447 40.5714 -33.6429 40.5714C-32.341 40.5714 -31.2857 41.6268 -31.2857 42.9286Z" fill="#618CD8" fill-opacity="0.62"/>
<path d="M-17.1429 42.9286C-17.1429 44.2304 -18.1982 45.2857 -19.5 45.2857C-20.8018 45.2857 -21.8571 44.2304 -21.8571 42.9286C-21.8571 41.6268 -20.8018 40.5714 -19.5 40.5714C-18.1982 40.5714 -17.1429 41.6268 -17.1429 42.9286Z" fill="#618CD8" fill-opacity="0.62"/>
<path d="M-3 42.9286C-3 44.2304 -4.05533 45.2857 -5.35714 45.2857C-6.65896 45.2857 -7.71428 44.2304 -7.71428 42.9286C-7.71428 41.6268 -6.65896 40.5714 -5.35714 40.5714C-4.05533 40.5714 -3 41.6268 -3 42.9286Z" fill="#618CD8" fill-opacity="0.62"/>
<path d="M11.1429 42.9286C11.1429 44.2304 10.0875 45.2857 8.78572 45.2857C7.4839 45.2857 6.42857 44.2304 6.42857 42.9286C6.42857 41.6268 7.4839 40.5714 8.78572 40.5714C10.0875 40.5714 11.1429 41.6268 11.1429 42.9286Z" fill="#618CD8" fill-opacity="0.62"/>
<path d="M25.2857 42.9286C25.2857 44.2304 24.2304 45.2857 22.9286 45.2857C21.6268 45.2857 20.5714 44.2304 20.5714 42.9286C20.5714 41.6268 21.6268 40.5714 22.9286 40.5714C24.2304 40.5714 25.2857 41.6268 25.2857 42.9286Z" fill="#618CD8" fill-opacity="0.62"/>
<path d="M39.4286 42.9286C39.4286 44.2304 38.3732 45.2857 37.0714 45.2857C35.7696 45.2857 34.7143 44.2304 34.7143 42.9286C34.7143 41.6268 35.7696 40.5714 37.0714 40.5714C38.3732 40.5714 39.4286 41.6268 39.4286 42.9286Z" fill="#618CD8" fill-opacity="0.62"/>
<path d="M53.5714 42.9286C53.5714 44.2304 52.5161 45.2857 51.2143 45.2857C49.9125 45.2857 48.8571 44.2304 48.8571 42.9286C48.8571 41.6268 49.9125 40.5714 51.2143 40.5714C52.5161 40.5714 53.5714 41.6268 53.5714 42.9286Z" fill="#618CD8" fill-opacity="0.62"/>
<path d="M67.7143 42.9286C67.7143 44.2304 66.659 45.2857 65.3571 45.2857C64.0553 45.2857 63 44.2304 63 42.9286C63 41.6268 64.0553 40.5714 65.3571 40.5714C66.659 40.5714 67.7143 41.6268 67.7143 42.9286Z" fill="#618CD8" fill-opacity="0.62"/>
<path d="M81.8571 42.9286C81.8571 44.2304 80.8018 45.2857 79.5 45.2857C78.1982 45.2857 77.1429 44.2304 77.1429 42.9286C77.1429 41.6268 78.1982 40.5714 79.5 40.5714C80.8018 40.5714 81.8571 41.6268 81.8571 42.9286Z" fill="#618CD8" fill-opacity="0.62"/>
<path d="M96 42.9286C96 44.2304 94.9447 45.2857 93.6429 45.2857C92.341 45.2857 91.2857 44.2304 91.2857 42.9286C91.2857 41.6268 92.341 40.5714 93.6429 40.5714C94.9447 40.5714 96 41.6268 96 42.9286Z" fill="#618CD8" fill-opacity="0.62"/>
<path d="M-31.2857 57.0714C-31.2857 58.3732 -32.341 59.4286 -33.6429 59.4286C-34.9447 59.4286 -36 58.3732 -36 57.0714C-36 55.7696 -34.9447 54.7143 -33.6429 54.7143C-32.341 54.7143 -31.2857 55.7696 -31.2857 57.0714Z" fill="#618CD8" fill-opacity="0.62"/>
<path d="M-17.1429 57.0714C-17.1429 58.3732 -18.1982 59.4286 -19.5 59.4286C-20.8018 59.4286 -21.8571 58.3732 -21.8571 57.0714C-21.8571 55.7696 -20.8018 54.7143 -19.5 54.7143C-18.1982 54.7143 -17.1429 55.7696 -17.1429 57.0714Z" fill="#618CD8" fill-opacity="0.62"/>
<path d="M-3 57.0714C-3 58.3732 -4.05533 59.4286 -5.35714 59.4286C-6.65896 59.4286 -7.71428 58.3732 -7.71428 57.0714C-7.71428 55.7696 -6.65896 54.7143 -5.35714 54.7143C-4.05533 54.7143 -3 55.7696 -3 57.0714Z" fill="#618CD8" fill-opacity="0.62"/>
<path d="M11.1429 57.0714C11.1429 58.3732 10.0875 59.4286 8.78572 59.4286C7.4839 59.4286 6.42857 58.3732 6.42857 57.0714C6.42857 55.7696 7.4839 54.7143 8.78572 54.7143C10.0875 54.7143 11.1429 55.7696 11.1429 57.0714Z" fill="#618CD8" fill-opacity="0.62"/>
<path d="M25.2857 57.0714C25.2857 58.3732 24.2304 59.4286 22.9286 59.4286C21.6268 59.4286 20.5714 58.3732 20.5714 57.0714C20.5714 55.7696 21.6268 54.7143 22.9286 54.7143C24.2304 54.7143 25.2857 55.7696 25.2857 57.0714Z" fill="#618CD8" fill-opacity="0.62"/>
<path d="M39.4286 57.0714C39.4286 58.3732 38.3732 59.4286 37.0714 59.4286C35.7696 59.4286 34.7143 58.3732 34.7143 57.0714C34.7143 55.7696 35.7696 54.7143 37.0714 54.7143C38.3732 54.7143 39.4286 55.7696 39.4286 57.0714Z" fill="#618CD8" fill-opacity="0.62"/>
<path d="M53.5714 57.0714C53.5714 58.3732 52.5161 59.4286 51.2143 59.4286C49.9125 59.4286 48.8571 58.3732 48.8571 57.0714C48.8571 55.7696 49.9125 54.7143 51.2143 54.7143C52.5161 54.7143 53.5714 55.7696 53.5714 57.0714Z" fill="#618CD8" fill-opacity="0.62"/>
<path d="M67.7143 57.0714C67.7143 58.3732 66.659 59.4286 65.3571 59.4286C64.0553 59.4286 63 58.3732 63 57.0714C63 55.7696 64.0553 54.7143 65.3571 54.7143C66.659 54.7143 67.7143 55.7696 67.7143 57.0714Z" fill="#618CD8" fill-opacity="0.62"/>
<path d="M81.8571 57.0714C81.8571 58.3732 80.8018 59.4286 79.5 59.4286C78.1982 59.4286 77.1429 58.3732 77.1429 57.0714C77.1429 55.7696 78.1982 54.7143 79.5 54.7143C80.8018 54.7143 81.8571 55.7696 81.8571 57.0714Z" fill="#618CD8" fill-opacity="0.62"/>
<path d="M96 57.0714C96 58.3732 94.9447 59.4286 93.6429 59.4286C92.341 59.4286 91.2857 58.3732 91.2857 57.0714C91.2857 55.7696 92.341 54.7143 93.6429 54.7143C94.9447 54.7143 96 55.7696 96 57.0714Z" fill="#618CD8" fill-opacity="0.62"/>
<path d="M-31.2857 71.2143C-31.2857 72.5161 -32.341 73.5714 -33.6429 73.5714C-34.9447 73.5714 -36 72.5161 -36 71.2143C-36 69.9125 -34.9447 68.8571 -33.6429 68.8571C-32.341 68.8571 -31.2857 69.9125 -31.2857 71.2143Z" fill="#618CD8" fill-opacity="0.62"/>
<path d="M-17.1429 71.2143C-17.1429 72.5161 -18.1982 73.5714 -19.5 73.5714C-20.8018 73.5714 -21.8571 72.5161 -21.8571 71.2143C-21.8571 69.9125 -20.8018 68.8571 -19.5 68.8571C-18.1982 68.8571 -17.1429 69.9125 -17.1429 71.2143Z" fill="#618CD8" fill-opacity="0.62"/>
<path d="M-3 71.2143C-3 72.5161 -4.05533 73.5714 -5.35714 73.5714C-6.65896 73.5714 -7.71428 72.5161 -7.71428 71.2143C-7.71428 69.9125 -6.65896 68.8571 -5.35714 68.8571C-4.05533 68.8571 -3 69.9125 -3 71.2143Z" fill="#618CD8" fill-opacity="0.62"/>
<path d="M11.1429 71.2143C11.1429 72.5161 10.0875 73.5714 8.78572 73.5714C7.4839 73.5714 6.42857 72.5161 6.42857 71.2143C6.42857 69.9125 7.4839 68.8571 8.78572 68.8571C10.0875 68.8571 11.1429 69.9125 11.1429 71.2143Z" fill="#618CD8" fill-opacity="0.62"/>
<path d="M25.2857 71.2143C25.2857 72.5161 24.2304 73.5714 22.9286 73.5714C21.6268 73.5714 20.5714 72.5161 20.5714 71.2143C20.5714 69.9125 21.6268 68.8571 22.9286 68.8571C24.2304 68.8571 25.2857 69.9125 25.2857 71.2143Z" fill="#618CD8" fill-opacity="0.62"/>
<path d="M39.4286 71.2143C39.4286 72.5161 38.3732 73.5714 37.0714 73.5714C35.7696 73.5714 34.7143 72.5161 34.7143 71.2143C34.7143 69.9125 35.7696 68.8571 37.0714 68.8571C38.3732 68.8571 39.4286 69.9125 39.4286 71.2143Z" fill="#618CD8" fill-opacity="0.62"/>
<path d="M53.5714 71.2143C53.5714 72.5161 52.5161 73.5714 51.2143 73.5714C49.9125 73.5714 48.8571 72.5161 48.8571 71.2143C48.8571 69.9125 49.9125 68.8571 51.2143 68.8571C52.5161 68.8571 53.5714 69.9125 53.5714 71.2143Z" fill="#618CD8" fill-opacity="0.62"/>
<path d="M67.7143 71.2143C67.7143 72.5161 66.659 73.5714 65.3571 73.5714C64.0553 73.5714 63 72.5161 63 71.2143C63 69.9125 64.0553 68.8571 65.3571 68.8571C66.659 68.8571 67.7143 69.9125 67.7143 71.2143Z" fill="#618CD8" fill-opacity="0.62"/>
<path d="M81.8571 71.2143C81.8571 72.5161 80.8018 73.5714 79.5 73.5714C78.1982 73.5714 77.1429 72.5161 77.1429 71.2143C77.1429 69.9125 78.1982 68.8571 79.5 68.8571C80.8018 68.8571 81.8571 69.9125 81.8571 71.2143Z" fill="#618CD8" fill-opacity="0.62"/>
<path d="M96 71.2143C96 72.5161 94.9447 73.5714 93.6429 73.5714C92.341 73.5714 91.2857 72.5161 91.2857 71.2143C91.2857 69.9125 92.341 68.8571 93.6429 68.8571C94.9447 68.8571 96 69.9125 96 71.2143Z" fill="#618CD8" fill-opacity="0.62"/>
<path d="M-17.1429 85.3571C-17.1429 86.659 -18.1982 87.7143 -19.5 87.7143C-20.8018 87.7143 -21.8571 86.659 -21.8571 85.3571C-21.8571 84.0553 -20.8018 83 -19.5 83C-18.1982 83 -17.1429 84.0553 -17.1429 85.3571Z" fill="#618CD8" fill-opacity="0.62"/>
<path d="M-3 85.3571C-3 86.659 -4.05533 87.7143 -5.35714 87.7143C-6.65896 87.7143 -7.71428 86.659 -7.71428 85.3571C-7.71428 84.0553 -6.65896 83 -5.35714 83C-4.05533 83 -3 84.0553 -3 85.3571Z" fill="#618CD8" fill-opacity="0.62"/>
<path d="M11.1429 85.3571C11.1429 86.659 10.0875 87.7143 8.78572 87.7143C7.4839 87.7143 6.42857 86.659 6.42857 85.3571C6.42857 84.0553 7.4839 83 8.78572 83C10.0875 83 11.1429 84.0553 11.1429 85.3571Z" fill="#618CD8" fill-opacity="0.62"/>
<path d="M25.2857 85.3571C25.2857 86.659 24.2304 87.7143 22.9286 87.7143C21.6268 87.7143 20.5714 86.659 20.5714 85.3571C20.5714 84.0553 21.6268 83 22.9286 83C24.2304 83 25.2857 84.0553 25.2857 85.3571Z" fill="#618CD8" fill-opacity="0.62"/>
<path d="M39.4286 85.3571C39.4286 86.659 38.3732 87.7143 37.0714 87.7143C35.7696 87.7143 34.7143 86.659 34.7143 85.3571C34.7143 84.0553 35.7696 83 37.0714 83C38.3732 83 39.4286 84.0553 39.4286 85.3571Z" fill="#618CD8" fill-opacity="0.62"/>
<path d="M53.5714 85.3571C53.5714 86.659 52.5161 87.7143 51.2143 87.7143C49.9125 87.7143 48.8571 86.659 48.8571 85.3571C48.8571 84.0553 49.9125 83 51.2143 83C52.5161 83 53.5714 84.0553 53.5714 85.3571Z" fill="#618CD8" fill-opacity="0.62"/>
<path d="M67.7143 85.3571C67.7143 86.659 66.659 87.7143 65.3571 87.7143C64.0553 87.7143 63 86.659 63 85.3571C63 84.0553 64.0553 83 65.3571 83C66.659 83 67.7143 84.0553 67.7143 85.3571Z" fill="#618CD8" fill-opacity="0.62"/>
<path d="M81.8571 85.3571C81.8571 86.659 80.8018 87.7143 79.5 87.7143C78.1982 87.7143 77.1429 86.659 77.1429 85.3571C77.1429 84.0553 78.1982 83 79.5 83C80.8018 83 81.8571 84.0553 81.8571 85.3571Z" fill="#618CD8" fill-opacity="0.62"/>
<path d="M-3 99.5C-3 100.802 -4.05533 101.857 -5.35714 101.857C-6.65896 101.857 -7.71428 100.802 -7.71428 99.5C-7.71428 98.1982 -6.65896 97.1429 -5.35714 97.1429C-4.05533 97.1429 -3 98.1982 -3 99.5Z" fill="#618CD8" fill-opacity="0.62"/>
<path d="M11.1429 99.5C11.1429 100.802 10.0875 101.857 8.78572 101.857C7.4839 101.857 6.42857 100.802 6.42857 99.5C6.42857 98.1982 7.4839 97.1429 8.78572 97.1429C10.0875 97.1429 11.1429 98.1982 11.1429 99.5Z" fill="#618CD8" fill-opacity="0.62"/>
<path d="M25.2857 99.5C25.2857 100.802 24.2304 101.857 22.9286 101.857C21.6268 101.857 20.5714 100.802 20.5714 99.5C20.5714 98.1982 21.6268 97.1429 22.9286 97.1429C24.2304 97.1429 25.2857 98.1982 25.2857 99.5Z" fill="#618CD8" fill-opacity="0.62"/>
<path d="M39.4286 99.5C39.4286 100.802 38.3732 101.857 37.0714 101.857C35.7696 101.857 34.7143 100.802 34.7143 99.5C34.7143 98.1982 35.7696 97.1429 37.0714 97.1429C38.3732 97.1429 39.4286 98.1982 39.4286 99.5Z" fill="#618CD8" fill-opacity="0.62"/>
<path d="M53.5714 99.5C53.5714 100.802 52.5161 101.857 51.2143 101.857C49.9125 101.857 48.8571 100.802 48.8571 99.5C48.8571 98.1982 49.9125 97.1429 51.2143 97.1429C52.5161 97.1429 53.5714 98.1982 53.5714 99.5Z" fill="#618CD8" fill-opacity="0.62"/>
<path d="M67.7143 99.5C67.7143 100.802 66.659 101.857 65.3571 101.857C64.0553 101.857 63 100.802 63 99.5C63 98.1982 64.0553 97.1429 65.3571 97.1429C66.659 97.1429 67.7143 98.1982 67.7143 99.5Z" fill="#618CD8" fill-opacity="0.62"/>
<path d="M11.1429 113.643C11.1429 114.945 10.0875 116 8.78572 116C7.4839 116 6.42857 114.945 6.42857 113.643C6.42857 112.341 7.4839 111.286 8.78572 111.286C10.0875 111.286 11.1429 112.341 11.1429 113.643Z" fill="#618CD8" fill-opacity="0.62"/>
<path d="M25.2857 113.643C25.2857 114.945 24.2304 116 22.9286 116C21.6268 116 20.5714 114.945 20.5714 113.643C20.5714 112.341 21.6268 111.286 22.9286 111.286C24.2304 111.286 25.2857 112.341 25.2857 113.643Z" fill="#618CD8" fill-opacity="0.62"/>
<path d="M39.4286 113.643C39.4286 114.945 38.3732 116 37.0714 116C35.7696 116 34.7143 114.945 34.7143 113.643C34.7143 112.341 35.7696 111.286 37.0714 111.286C38.3732 111.286 39.4286 112.341 39.4286 113.643Z" fill="#618CD8" fill-opacity="0.62"/>
<path d="M53.5714 113.643C53.5714 114.945 52.5161 116 51.2143 116C49.9125 116 48.8571 114.945 48.8571 113.643C48.8571 112.341 49.9125 111.286 51.2143 111.286C52.5161 111.286 53.5714 112.341 53.5714 113.643Z" fill="#618CD8" fill-opacity="0.62"/>
</g>
<defs>
<linearGradient id="paint0_linear_508_235" x1="197" y1="153" x2="196.531" y2="348.5" gradientUnits="userSpaceOnUse">
<stop stop-color="#4879CE"/>
<stop offset="1" stop-color="#84B1FF"/>
</linearGradient>
<linearGradient id="paint1_linear_508_235" x1="393" y1="116" x2="-346.5" y2="390.5" gradientUnits="userSpaceOnUse">
<stop offset="0.00391748" stop-color="#1B3F7E"/>
<stop offset="1" stop-color="#5884D1"/>
</linearGradient>
<linearGradient id="paint2_linear_508_235" x1="564" y1="-120.5" x2="-139.5" y2="48" gradientUnits="userSpaceOnUse">
<stop stop-color="#052255"/>
<stop offset="1" stop-color="#1B3F7E"/>
</linearGradient>
</defs>
</svg>
