<svg width="80" height="38" viewBox="0 0 80 38" fill="none" xmlns="http://www.w3.org/2000/svg">
<path d="M3.57129 17.4998C4.95198 17.4998 6.07123 18.6191 6.07129 19.9998C6.07129 21.3804 4.95202 22.4998 3.57129 22.4998C2.19063 22.4997 1.07129 21.3804 1.07129 19.9998C1.07134 18.6192 2.19066 17.4998 3.57129 17.4998Z" fill="#D9D9D9" stroke="#0A2963" stroke-width="2.14285"/>
<path d="M76.4287 17.4998C77.8094 17.4998 78.9287 18.6191 78.9287 19.9998C78.9287 21.3804 77.8094 22.4998 76.4287 22.4998C75.048 22.4997 73.9287 21.3804 73.9287 19.9998C73.9288 18.6192 75.0481 17.4998 76.4287 17.4998Z" fill="#D9D9D9" stroke="#0A2963" stroke-width="2.14285"/>
<line x1="57" y1="20.5001" x2="74" y2="20.5001" stroke="#0A2963" stroke-width="2.14285"/>
<line x1="5" y1="20.5001" x2="22" y2="20.5001" stroke="#0A2963" stroke-width="2.14285"/>
<path d="M24.6426 26.3096L25.8126 26.8946C26.416 27.1962 27.0779 27.3627 27.7523 27.3825C28.4266 27.4023 29.0971 27.2749 29.7172 27.0091L31.3267 26.3189C31.9046 26.0713 32.5266 25.9437 33.1553 25.9437C33.7839 25.9437 34.406 26.0713 34.9838 26.3189L36.5933 27.0091C37.2134 27.2749 37.8839 27.4023 38.5582 27.3825C39.2326 27.3627 39.8945 27.1962 40.4979 26.8946L41.1371 26.5742C41.7819 26.2517 42.493 26.0838 43.214 26.0838C43.935 26.0838 44.6461 26.2517 45.2909 26.5742L46.1375 26.9967C47.2386 27.5474 48.5134 27.6382 49.6815 27.249L52.4997 26.3096M27.7378 22.4406L26.1902 15.4763H32.3807M32.3807 15.4763V10.8334H39.7767L40.8926 15.4763M32.3807 15.4763H40.8926M47.8569 22.4406L51.7259 15.4763H38.9658H40.8926M37.0235 20.1191H37.1783M35.4759 6.96437L35.1664 6.65484C34.7883 6.27726 34.3189 6.00398 33.8039 5.86159C33.2889 5.71921 32.7458 5.71258 32.2275 5.84234L31.7075 5.97234C31.1361 6.11522 30.5359 6.09213 29.9772 5.9058L28.5116 5.41675" stroke="#0A2963" stroke-width="3.09524" stroke-linecap="round" stroke-linejoin="round"/>
</svg>
