<svg width="15" height="15" viewBox="0 0 15 15" fill="none" xmlns="http://www.w3.org/2000/svg">
<path d="M8.6669 8.64209H10.0002V4.64209H6.00023V5.97542H7.72423L4.1709 9.52876L5.11357 10.4714L8.6669 6.91809V8.64209Z" fill="#4E4E4E"/>
<path fill-rule="evenodd" clip-rule="evenodd" d="M0 7.33333C0 3.28333 3.28333 0 7.33333 0C11.3833 0 14.6667 3.28333 14.6667 7.33333C14.6667 11.3833 11.3833 14.6667 7.33333 14.6667C3.28333 14.6667 0 11.3833 0 7.33333ZM1.33333 7.33333C1.33333 6.5454 1.48853 5.76519 1.79006 5.03723C2.09158 4.30928 2.53354 3.64784 3.09069 3.09069C3.64784 2.53354 4.30928 2.09158 5.03723 1.79006C5.76519 1.48853 6.5454 1.33333 7.33333 1.33333C8.12126 1.33333 8.90148 1.48853 9.62943 1.79006C10.3574 2.09158 11.0188 2.53354 11.576 3.09069C12.1331 3.64784 12.5751 4.30928 12.8766 5.03723C13.1781 5.76519 13.3333 6.5454 13.3333 7.33333C13.3333 8.92463 12.7012 10.4508 11.576 11.576C10.4508 12.7012 8.92463 13.3333 7.33333 13.3333C5.74203 13.3333 4.21591 12.7012 3.09069 11.576C1.96547 10.4508 1.33333 8.92463 1.33333 7.33333Z" fill="#4E4E4E"/>
</svg>
