<svg width="17" height="17" viewBox="0 0 17 17" fill="none" xmlns="http://www.w3.org/2000/svg">
<path d="M14.0698 13.4001C14.0698 12.233 12.9509 11.2407 11.3898 10.8722M10.0498 13.4001C10.0498 11.9194 8.25015 10.7201 6.02977 10.7201C3.80939 10.7201 2.00977 11.9194 2.00977 13.4001M10.0498 8.7101C10.7605 8.7101 11.4422 8.42774 11.9448 7.92514C12.4474 7.42255 12.7298 6.74088 12.7298 6.0301C12.7298 5.31932 12.4474 4.63765 11.9448 4.13505C11.4422 3.63245 10.7605 3.3501 10.0498 3.3501M6.02977 8.7101C5.31899 8.7101 4.63732 8.42774 4.13472 7.92514C3.63212 7.42255 3.34977 6.74088 3.34977 6.0301C3.34977 5.31932 3.63212 4.63765 4.13472 4.13505C4.63732 3.63245 5.31899 3.3501 6.02977 3.3501C6.74055 3.3501 7.42221 3.63245 7.92481 4.13505C8.42741 4.63765 8.70977 5.31932 8.70977 6.0301C8.70977 6.74088 8.42741 7.42255 7.92481 7.92514C7.42221 8.42774 6.74055 8.7101 6.02977 8.7101Z" stroke="#4E4E4E" stroke-width="1.34" stroke-linecap="round" stroke-linejoin="round"/>
</svg>
