<svg width="32" height="32" viewBox="0 0 32 32" fill="none" xmlns="http://www.w3.org/2000/svg">
<rect width="32" height="32" fill="white"/>
<path d="M4 22.6667L5.008 23.1707C5.52789 23.4306 6.09816 23.574 6.67912 23.5911C7.26008 23.6081 7.83778 23.4984 8.372 23.2694L9.75867 22.6747C10.2565 22.4615 10.7924 22.3515 11.334 22.3515C11.8756 22.3515 12.4115 22.4615 12.9093 22.6747L14.296 23.2694C14.8302 23.4984 15.4079 23.6081 15.9889 23.5911C16.5698 23.574 17.1401 23.4306 17.66 23.1707L18.2107 22.8947C18.7662 22.6169 19.3788 22.4722 20 22.4722C20.6212 22.4722 21.2338 22.6169 21.7893 22.8947L22.5187 23.2587C23.4674 23.7332 24.5657 23.8113 25.572 23.4761L28 22.6667M6.66667 19.3334L5.33333 13.3334H10.6667M10.6667 13.3334V9.33341H17.0387L18 13.3334M10.6667 13.3334H18M24 19.3334L27.3333 13.3334H16.34H18M14.6667 17.3334H14.8M13.3333 6.00008L13.0667 5.73341C12.7409 5.40811 12.3365 5.17267 11.8928 5.05C11.4491 4.92733 10.9812 4.92162 10.5347 5.03341L10.0867 5.14541C9.59444 5.26851 9.07732 5.24862 8.596 5.08808L7.33333 4.66675" stroke="#0A2963" stroke-width="2.66667" stroke-linecap="round" stroke-linejoin="round"/>
</svg>
