<svg width="19" height="19" viewBox="0 0 19 19" fill="none" xmlns="http://www.w3.org/2000/svg">
<path d="M16.5386 10.8899C16.6815 11.0328 16.7617 11.2265 16.7617 11.4286C16.7617 11.6306 16.6815 11.8243 16.5386 11.9672L13.491 15.0148C13.3481 15.1577 13.1544 15.2379 12.9524 15.2379C12.7503 15.2379 12.5566 15.1577 12.4137 15.0148L9.36607 11.9672C9.22728 11.8235 9.15049 11.6311 9.15223 11.4313C9.15396 11.2315 9.23409 11.0404 9.37535 10.8992C9.51662 10.7579 9.70771 10.6778 9.90748 10.676C10.1072 10.6743 10.2997 10.7511 10.4434 10.8899L12.1905 12.6369V3.80951C12.1905 3.60744 12.2707 3.41365 12.4136 3.27076C12.5565 3.12788 12.7503 3.04761 12.9524 3.04761C13.1544 3.04761 13.3482 3.12788 13.4911 3.27076C13.634 3.41365 13.7143 3.60744 13.7143 3.80951V12.6369L15.4613 10.8899C15.6042 10.7471 15.7979 10.6668 16 10.6668C16.202 10.6668 16.3958 10.7471 16.5386 10.8899ZM8.9196 7.3958C8.77672 7.53863 8.58296 7.61887 8.38093 7.61887C8.1789 7.61887 7.98514 7.53863 7.84226 7.3958L6.09521 5.64875V14.4762C6.09521 14.6782 6.01494 14.872 5.87206 15.0149C5.72917 15.1578 5.53538 15.2381 5.33331 15.2381C5.13124 15.2381 4.93745 15.1578 4.79456 15.0149C4.65168 14.872 4.57141 14.6782 4.57141 14.4762V5.64875L2.82436 7.3958C2.68066 7.53458 2.4882 7.61138 2.28843 7.60964C2.08866 7.60791 1.89757 7.52778 1.75631 7.38652C1.61504 7.24525 1.53491 7.05416 1.53318 6.85439C1.53144 6.65462 1.60824 6.46216 1.74702 6.31846L4.79464 3.27085C4.93752 3.12801 5.13128 3.04777 5.33331 3.04777C5.53534 3.04777 5.7291 3.12801 5.87198 3.27085L8.9196 6.31846C9.06243 6.46134 9.14267 6.6551 9.14267 6.85713C9.14267 7.05916 9.06243 7.25292 8.9196 7.3958Z" fill="white"/>
</svg>
