<svg width="16" height="16" viewBox="0 0 16 16" fill="none" xmlns="http://www.w3.org/2000/svg">
<g clip-path="url(#clip0_508_268)">
<path d="M6.69141 9.3334V10.6667H10.6914V6.66674H9.35807V8.39074L5.80474 4.8374L4.86207 5.78007L8.41541 9.3334H6.69141Z" fill="#4E4E4E"/>
<path fill-rule="evenodd" clip-rule="evenodd" d="M7.99967 0.666748C12.0497 0.666748 15.333 3.95008 15.333 8.00008C15.333 12.0501 12.0497 15.3334 7.99967 15.3334C3.94967 15.3334 0.666341 12.0501 0.666341 8.00008C0.666341 3.95008 3.94967 0.666748 7.99967 0.666748ZM7.99967 2.00008C8.78761 2.00008 9.56782 2.15528 10.2958 2.4568C11.0237 2.75833 11.6852 3.20029 12.2423 3.75744C12.7995 4.31459 13.2414 4.97603 13.543 5.70398C13.8445 6.43193 13.9997 7.21215 13.9997 8.00008C13.9997 8.78801 13.8445 9.56823 13.543 10.2962C13.2414 11.0241 12.7995 11.6856 12.2423 12.2427C11.6852 12.7999 11.0237 13.2418 10.2958 13.5434C9.56782 13.8449 8.78761 14.0001 7.99967 14.0001C6.40838 14.0001 4.88225 13.3679 3.75703 12.2427C2.63182 11.1175 1.99967 9.59138 1.99967 8.00008C1.99967 6.40878 2.63182 4.88266 3.75703 3.75744C4.88225 2.63222 6.40838 2.00008 7.99967 2.00008Z" fill="#4E4E4E"/>
</g>
<defs>
<clipPath id="clip0_508_268">
<rect width="16" height="16" fill="white" transform="matrix(0 1 -1 0 16 0)"/>
</clipPath>
</defs>
</svg>
