<svg width="21" height="21" viewBox="0 0 21 21" fill="none" xmlns="http://www.w3.org/2000/svg">
<g clip-path="url(#clip0_890_584)">
<path d="M20.9505 20.9505H0V0H20.9505V20.9505Z" fill="white"/>
<path d="M20.9505 11.3473V0.00878906H0V20.9593H20.9505V14.8468C20.9038 14.8468 20.9505 11.3473 20.9505 11.3473Z" fill="#006FCF"/>
<path d="M18.3842 10.181H19.9706V6.49487H18.2442V7.00814L17.9176 6.49487H16.4244V7.14812L16.1445 6.49487H13.3915C13.2982 6.49487 13.2049 6.54153 13.1116 6.54153C13.0182 6.54153 12.9716 6.58819 12.8783 6.63485C12.7849 6.68151 12.7383 6.68151 12.645 6.72817V6.49487H4.75935L4.52605 7.10146L4.29275 6.49487H2.42634V7.14812L2.14638 6.49487H0.653245L0 8.08132V10.181H1.07319L1.25983 9.66778H1.63311L1.81975 10.181H10.032V9.71444L10.3586 10.181H12.645V9.90108C12.6916 9.94774 12.7849 9.94774 12.8316 9.9944C12.8783 10.0411 12.9716 10.0411 13.0182 10.0877C13.1116 10.1344 13.2049 10.1344 13.2982 10.1344H14.978L15.1646 9.62112H15.5379L15.7245 10.1344H18.0109V9.66778L18.3842 10.181ZM20.9505 14.8471V11.3942H8.1189L7.79228 11.8608L7.46565 11.3942H3.73283V15.0804H7.46565L7.79228 14.6138L8.1189 15.0804H10.4519V14.2871H10.3586C10.6852 14.2871 10.9652 14.2405 11.1985 14.1472V15.127H12.8783V14.6604L13.2049 15.127H20.1573C20.4372 15.0337 20.7172 14.9871 20.9505 14.8471Z" fill="white"/>
<path d="M20.1573 13.9597H18.8974V14.4729H20.1106C20.6239 14.4729 20.9505 14.1463 20.9505 13.6797C20.9505 13.2131 20.6705 12.9798 20.2039 12.9798H19.644C19.504 12.9798 19.4107 12.8865 19.4107 12.7465C19.4107 12.6065 19.504 12.5132 19.644 12.5132H20.7172L20.9505 11.9999H19.6907C19.1774 11.9999 18.8508 12.3265 18.8508 12.7465C18.8508 13.2131 19.1307 13.4464 19.5973 13.4464H20.1573C20.2972 13.4464 20.3906 13.5397 20.3906 13.6797C20.4372 13.8663 20.3439 13.9597 20.1573 13.9597ZM17.8709 13.9597H16.6111V14.4729H17.8242C18.3375 14.4729 18.6641 14.1463 18.6641 13.6797C18.6641 13.2131 18.3842 12.9798 17.9176 12.9798H17.3576C17.2177 12.9798 17.1243 12.8865 17.1243 12.7465C17.1243 12.6065 17.2177 12.5132 17.3576 12.5132H18.4308L18.6641 11.9999H17.4043C16.891 11.9999 16.5644 12.3265 16.5644 12.7465C16.5644 13.2131 16.8444 13.4464 17.311 13.4464H17.8709C18.0109 13.4464 18.1042 13.5397 18.1042 13.6797C18.1509 13.8663 18.0109 13.9597 17.8709 13.9597ZM16.2378 12.4665V11.9533H14.2781V14.4263H16.2378V13.913H14.838V13.3997H16.1911V12.8865H14.838V12.4199H16.2378V12.4665ZM13.0649 12.4665C13.2982 12.4665 13.3915 12.6065 13.3915 12.7465C13.3915 12.8865 13.2982 13.0264 13.0649 13.0264H12.365V12.4199L13.0649 12.4665ZM12.365 13.5397H12.645L13.3915 14.4263H14.0914L13.2515 13.4931C13.6715 13.3997 13.9048 13.1198 13.9048 12.7465C13.9048 12.2799 13.5782 11.9533 13.0649 11.9533H11.7584V14.4263H12.3183L12.365 13.5397ZM10.8719 12.7931C10.8719 12.9798 10.7785 13.1198 10.5452 13.1198H9.79867V12.4665H10.4986C10.7319 12.4665 10.8719 12.6065 10.8719 12.7931ZM9.23875 11.9533V14.4263H9.79867V13.5864H10.5452C11.0585 13.5864 11.4318 13.2597 11.4318 12.7465C11.4318 12.2799 11.1052 11.9066 10.5919 11.9066L9.23875 11.9533ZM8.39886 14.4263H9.09877L8.1189 13.1664L9.09877 11.9533H8.39886L7.79228 12.7465L7.18569 11.9533H6.48579L7.46565 13.1664L6.48579 14.3796H7.18569L7.79228 13.5864L8.39886 14.4263ZM6.29915 12.4665V11.9533H4.33941V14.4263H6.29915V13.913H4.89934V13.3997H6.25249V12.8865H4.89934V12.4199H6.29915V12.4665ZM17.6376 8.08045L18.6175 9.57358H19.3174V7.10059H18.7575V8.7337L18.6175 8.5004L17.7309 7.10059H16.9844V9.57358H17.5443V7.89381L17.6376 8.08045ZM15.2113 8.03379L15.3979 7.52053L15.5846 8.03379L15.8179 8.59372H14.978L15.2113 8.03379ZM16.1911 9.57358H16.7977L15.7245 7.10059H14.978L13.9048 9.57358H14.5114L14.7447 9.06032H15.9578L16.1911 9.57358ZM13.5782 9.57358L13.8115 9.06032H13.6715C13.2515 9.06032 13.0182 8.78036 13.0182 8.36041V8.31375C13.0182 7.89381 13.2515 7.61385 13.6715 7.61385H14.2781V7.10059H13.6248C12.8783 7.10059 12.4583 7.61385 12.4583 8.31375V8.36041C12.4583 9.10698 12.8783 9.57358 13.5782 9.57358ZM11.4784 9.57358H12.0384V7.14725H11.4784V9.57358ZM10.2653 7.61385C10.4986 7.61385 10.5919 7.75383 10.5919 7.89381C10.5919 8.03379 10.4986 8.17377 10.2653 8.17377H9.56537V7.56719L10.2653 7.61385ZM9.56537 8.68704H9.84533L10.5919 9.57358H11.2918L10.4519 8.64038C10.8719 8.54706 11.1052 8.26709 11.1052 7.89381C11.1052 7.42721 10.7785 7.10059 10.2653 7.10059H8.95879V9.57358H9.51871L9.56537 8.68704ZM8.53884 7.61385V7.10059H6.57911V9.57358H8.53884V9.06032H7.13903V8.54706H8.49218V8.03379H7.13903V7.56719H8.53884V7.61385ZM4.29275 9.57358H4.80602L5.50592 7.56719V9.57358H6.06584V7.10059H5.13264L4.57271 8.78036L4.01279 7.10059H3.07958V9.57358H3.63951V7.56719L4.29275 9.57358ZM1.25983 8.03379L1.44647 7.52053L1.63311 8.03379L1.86641 8.59372H1.02653L1.25983 8.03379ZM2.2397 9.57358H2.84628L1.77309 7.10059H1.07319L0 9.57358H0.606584L0.839886 9.06032H2.05306L2.2397 9.57358Z" fill="#006FCF"/>
</g>
<defs>
<clipPath id="clip0_890_584">
<rect width="20.9972" height="20.9972" fill="white"/>
</clipPath>
</defs>
</svg>
