<svg width="25" height="12" viewBox="0 0 25 12" fill="none" xmlns="http://www.w3.org/2000/svg">
<path d="M6.40378 4.84934C6.41878 6.22916 7.65611 6.68659 7.66611 6.69284C7.65611 6.72284 7.46739 7.349 7.01495 7.99142C6.6225 8.54634 6.21506 9.10127 5.5739 9.11126C4.94148 9.12126 4.73776 8.74881 4.02036 8.74881C3.2967 8.74881 3.07298 9.10127 2.47682 9.12126C1.85565 9.14126 1.38696 8.52134 0.989518 7.96517C0.179628 6.83532 -0.435289 4.76685 0.394599 3.37204C0.807043 2.67964 1.54444 2.24095 2.34433 2.22595C2.9505 2.21595 3.52667 2.62339 3.89787 2.62339C4.26907 2.62339 4.96773 2.13471 5.70013 2.20595C6.00634 2.21595 6.87247 2.32843 7.4224 3.11208C7.37615 3.13707 6.39378 3.69325 6.40378 4.84934ZM5.21644 1.4573C5.54765 1.06986 5.76637 0.534927 5.70638 0C5.23144 0.0212471 4.65652 0.306208 4.32032 0.693656C4.01536 1.03486 3.75039 1.57979 3.82038 2.10346C4.35156 2.14471 4.89149 1.8435 5.21644 1.4573ZM9.9808 0.794892C10.2233 0.754898 10.497 0.719902 10.7907 0.684907C11.0848 0.650745 11.4077 0.634081 11.7593 0.634914C12.2634 0.635747 12.6979 0.694073 13.0629 0.80989C13.4278 0.931124 13.7265 1.09735 13.964 1.32482C14.1656 1.52229 14.324 1.7556 14.4389 2.02473C14.5523 2.29552 14.6089 2.60715 14.6089 2.9596C14.6089 3.38704 14.5314 3.76116 14.3765 4.08195C14.2301 4.39585 14.0132 4.67173 13.7428 4.88809C13.4584 5.11208 13.1327 5.27772 12.7842 5.37552C12.3901 5.48607 11.9824 5.54077 11.5731 5.538C11.2394 5.54212 10.9061 5.51281 10.5782 5.45051V8.99503H9.98705V0.796142L9.9808 0.794892ZM10.5732 4.93308C10.7182 4.97391 10.8782 5.00265 11.0532 5.01932C11.2298 5.03432 11.4185 5.04265 11.6193 5.04432C12.3751 5.04515 12.9608 4.87226 13.3766 4.52564C13.7932 4.18235 14.0011 3.67742 14.0003 3.01084C14.0003 2.68922 13.9453 2.41051 13.8353 2.1747C13.7326 1.94437 13.5736 1.74362 13.3728 1.59103C13.1574 1.43277 12.914 1.31658 12.6554 1.24858C12.3545 1.16941 12.0443 1.13074 11.7331 1.1336C11.4656 1.1336 11.2335 1.14359 11.0369 1.16359C10.882 1.17949 10.7277 1.20117 10.5745 1.22858L10.5732 4.93308ZM19.3183 7.59022C19.3191 7.82935 19.3224 8.06766 19.3283 8.30512C19.3383 8.54343 19.3641 8.77339 19.4058 8.99503H18.8496L18.7621 8.16014H18.7359C18.6536 8.28498 18.5566 8.39953 18.4471 8.50135C18.3247 8.62216 18.1889 8.72632 18.0397 8.8138C17.8749 8.9144 17.6964 8.99059 17.5098 9.04002C17.314 9.09668 17.0973 9.12543 16.8599 9.12626C16.5666 9.12626 16.3091 9.07919 16.0875 8.98503C15.8822 8.9011 15.6964 8.77605 15.5413 8.61758C15.3965 8.46936 15.2872 8.29034 15.2213 8.0939C15.1515 7.90538 15.1148 7.70624 15.1126 7.50523C15.1126 6.80699 15.4134 6.26998 16.015 5.8942C16.6157 5.51675 17.521 5.33553 18.7309 5.35052V5.1893C18.7309 5.03515 18.7154 4.85767 18.6846 4.65687C18.6559 4.4546 18.5894 4.25955 18.4884 4.08195C18.379 3.89427 18.2227 3.73834 18.0347 3.62951C17.8339 3.50702 17.561 3.44495 17.2161 3.44328C16.6918 3.44375 16.1792 3.59754 15.7413 3.88572L15.5513 3.45328C15.8196 3.27331 16.0962 3.14416 16.3812 3.06583C16.6645 2.99001 16.9632 2.95127 17.2773 2.9496C17.6989 2.9496 18.0405 3.02042 18.3022 3.16207C18.5646 3.30205 18.7771 3.48328 18.9271 3.7045C19.0754 3.92613 19.1783 4.17443 19.2358 4.4494C19.2916 4.72603 19.3191 4.99974 19.3183 5.27053V7.59022ZM18.7259 5.83421C18.3922 5.82679 18.0583 5.83848 17.726 5.8692C17.376 5.9042 17.0548 5.97627 16.7624 6.08543C16.483 6.18751 16.232 6.35459 16.03 6.57286C15.8392 6.787 15.7433 7.07112 15.7425 7.42524C15.7425 7.84352 15.8642 8.15014 16.1075 8.34512C16.3491 8.54259 16.6224 8.64174 16.9274 8.64258C17.1707 8.64174 17.3885 8.60842 17.581 8.54259C17.7727 8.47593 17.941 8.38678 18.0859 8.27513C18.2293 8.16348 18.3497 8.03766 18.4471 7.89768C18.5406 7.76452 18.6151 7.61897 18.6684 7.46524C18.7025 7.34879 18.7234 7.2289 18.7309 7.10779L18.7259 5.83421ZM20.4719 3.08583L22.0079 6.92656C22.1732 7.34807 22.3208 7.7763 22.4504 8.21014H22.4766C22.6158 7.77152 22.7671 7.33683 22.9303 6.90656L24.3676 3.09083H24.9963L23.244 7.42524C23.0674 7.88351 22.9007 8.29929 22.7441 8.67257C22.6013 9.01692 22.4433 9.35471 22.2704 9.68494C22.1254 9.95969 21.9634 10.2252 21.7854 10.4798C21.6298 10.7031 21.4467 10.9059 21.2405 11.0835C21.003 11.2901 20.7864 11.4397 20.5906 11.5322C20.462 11.5981 20.3297 11.6565 20.1944 11.7072L19.9932 11.2297C20.1432 11.1647 20.3115 11.0793 20.4981 10.9735C20.6839 10.866 20.8643 10.7265 21.0393 10.5548C21.1901 10.409 21.3568 10.2144 21.5392 9.97115C21.7184 9.73035 21.8796 9.43664 22.0229 9.09002C22.0601 9.00847 22.0862 8.92229 22.1004 8.8338C22.0901 8.74444 22.0639 8.65765 22.0229 8.57759L19.8432 3.10083H20.4719V3.08583Z" fill="black"/>
</svg>
