<svg width="34" height="11" viewBox="0 0 34 11" fill="none" xmlns="http://www.w3.org/2000/svg">
<g clip-path="url(#clip0_890_564)">
<path d="M0 6.34326H14.3821V10.9982H0V6.34326Z" fill="#82BC00"/>
<path d="M0 0H14.3821V4.65271H0V0Z" fill="#00A1DF"/>
<path d="M28.7623 10.0475L28.6995 10.0606C28.5466 10.0957 28.3902 10.1147 28.2331 10.1171C27.8586 10.1171 27.4147 9.93217 27.4147 9.05081C27.4147 8.59816 27.4954 7.99971 28.1905 7.99971C28.365 8.00822 28.5377 8.03895 28.704 8.09111L28.7578 8.10852L28.7623 10.0475ZM28.8789 5.65812L28.7623 5.6777V7.31203L28.6636 7.28374H28.6345C28.4283 7.21946 28.214 7.18285 27.9976 7.17493C26.5962 7.17493 26.3002 8.20427 26.3002 9.06604C26.3002 10.2477 26.9729 10.9267 28.1748 10.9267C28.6003 10.9371 29.0246 10.879 29.4305 10.7548C29.7758 10.6481 29.9014 10.4936 29.9014 10.1672V5.49708C29.565 5.56019 29.2287 5.61242 28.8811 5.66682M32.9172 10.078L32.8589 10.0932L32.6347 10.1476C32.4669 10.195 32.2937 10.2221 32.119 10.2281C31.7894 10.2281 31.592 10.0693 31.592 9.79289C31.592 9.6188 31.6728 9.32719 32.2109 9.32719H32.906L32.9172 10.078ZM32.4284 7.14664C31.9455 7.16021 31.4676 7.24534 31.0113 7.39908L30.6525 7.50571L30.7714 8.28914L31.1212 8.17815C31.4977 8.06105 31.8896 7.99728 32.2849 7.98882C32.4419 7.98882 32.9127 7.98882 32.9127 8.48282V8.70044H32.258C31.0696 8.70044 30.5157 9.06822 30.5157 9.85818C30.5157 10.535 31.0225 10.9354 31.8791 10.9354C32.199 10.9291 32.5173 10.8875 32.8275 10.8114H32.8612L32.9666 10.8288C33.3007 10.8875 33.6393 10.9441 33.9823 11.0116V8.40883C33.9823 7.57099 33.4621 7.14664 32.4374 7.14664M24.632 10.078L24.5737 10.0932L24.3494 10.1476C24.1824 10.1952 24.0099 10.2222 23.836 10.2281C23.5063 10.2281 23.309 10.0693 23.309 9.79289C23.309 9.6188 23.3897 9.32719 23.9279 9.32719H24.623L24.632 10.078ZM24.1431 7.14664C23.6573 7.15953 23.1763 7.24467 22.717 7.39908L22.3583 7.50571L22.4794 8.28914L22.8269 8.17815C23.2042 8.06084 23.5969 7.99707 23.9929 7.98882C24.1454 7.98882 24.6163 7.98882 24.6163 8.48282V8.70044H23.9638C22.7753 8.70044 22.2193 9.06822 22.2193 9.85818C22.2193 10.535 22.7283 10.9354 23.5826 10.9354C23.9033 10.9289 24.2222 10.8873 24.5333 10.8114H24.5669L24.6723 10.8288C25.0064 10.8875 25.345 10.9441 25.6881 11.0116V8.40883C25.6881 7.56882 25.1679 7.14664 24.1431 7.14664ZM20.1317 7.14664C19.7321 7.1515 19.338 7.23749 18.9747 7.39908L18.9321 7.41866L18.8962 7.39908C18.584 7.21458 18.2203 7.12937 17.8558 7.15534C17.4409 7.15503 17.0283 7.21443 16.6315 7.33161C16.2682 7.44042 16.127 7.60799 16.127 7.92571V10.881H17.266V8.15204L17.3199 8.13463C17.4804 8.07872 17.6494 8.0493 17.8199 8.04758C18.1495 8.04758 18.3132 8.21515 18.3132 8.54811V10.881H19.4343V8.50023C19.4359 8.42157 19.4222 8.34332 19.394 8.26955L19.3581 8.19774L19.4343 8.1651C19.6086 8.08969 19.7974 8.05111 19.9882 8.05193C20.0473 8.0453 20.1072 8.05015 20.1644 8.06621C20.2215 8.08227 20.2748 8.10922 20.3212 8.14547C20.3675 8.18173 20.4059 8.22658 20.4342 8.2774C20.4625 8.32821 20.4801 8.38399 20.486 8.44147C20.4904 8.47834 20.4904 8.51559 20.486 8.55246V10.881H21.6071V8.43712C21.6071 7.56664 21.1273 7.15534 20.1362 7.15534M32.0943 3.03362C31.8687 3.03413 31.6435 3.01446 31.4216 2.97486H31.3588V1.36665C31.3598 1.29299 31.3492 1.21962 31.3275 1.14903L31.2916 1.08157L31.3633 1.04893C31.3819 1.04433 31.4 1.03776 31.4171 1.02934H31.4306L31.5046 1.0054H31.5382C31.7297 0.959743 31.9263 0.937806 32.1235 0.940118C32.8186 0.940118 32.8993 1.53857 32.8993 1.9934C32.8993 2.86388 32.4508 3.05756 32.0809 3.05756M32.0876 0H32.0652C31.4127 0 30.74 0.17192 30.4956 0.513583C30.3589 0.691965 30.2871 0.909359 30.2915 1.13162V2.77465C30.2967 2.84465 30.2844 2.91483 30.2556 2.97922L30.2198 3.05321H28.1568V1.9107C28.1322 0.705088 27.3945 0.043524 26.3316 0.043524H25.2934L25.1724 0.837836H26.2061C26.7487 0.837836 27.0335 1.28831 27.0335 1.97599V3.12502L26.9595 3.0902C26.8809 3.06418 26.7979 3.05309 26.7151 3.05756H24.9212C24.8876 3.27518 24.845 3.56026 24.7979 3.84752H30.2848C30.4687 3.81488 30.6906 3.78223 30.8767 3.74959C31.2445 3.88634 31.6355 3.95427 32.0293 3.9498C33.2222 3.9498 33.9913 3.17725 33.9913 1.99122C33.9913 0.805193 33.2491 0.0261144 32.0876 0ZM22.4659 4.32846H22.5152C23.7059 4.32846 24.2597 3.94762 24.2597 3.00533C24.2597 2.32853 23.7507 1.78884 22.8964 1.78884H21.7977C21.7364 1.79613 21.6743 1.7916 21.6148 1.77551C21.5554 1.75942 21.4998 1.73209 21.4512 1.69508C21.4027 1.65808 21.3621 1.61213 21.3319 1.55987C21.3017 1.50762 21.2825 1.45009 21.2753 1.39059C21.273 1.36162 21.273 1.33252 21.2753 1.30354C21.2753 1.08592 21.356 0.83566 21.8919 0.83566H24.2911C24.3405 0.530992 24.3696 0.343839 24.4145 0.043524H21.921C20.7595 0.043524 20.181 0.513583 20.181 1.30572C20.181 2.09786 20.6923 2.48957 21.5443 2.48957H22.6475C22.7155 2.48842 22.7829 2.5003 22.8461 2.52453C22.9093 2.54876 22.9669 2.58486 23.0156 2.63076C23.0644 2.67666 23.1033 2.73146 23.1302 2.79201C23.1571 2.85255 23.1714 2.91765 23.1722 2.98357V3.00533C23.1722 3.1816 23.0915 3.54285 22.5556 3.54285H22.3695H18.8558H18.2056C17.6652 3.54285 17.284 3.24254 17.284 2.55486V2.06956C17.284 1.34707 17.5777 0.89877 18.2056 0.89877H19.2572C19.302 0.591926 19.3312 0.400421 19.376 0.104458H17.9522C16.8871 0.104458 16.1583 0.798665 16.127 2.00428V2.54398C16.1539 3.74959 16.8871 4.32411 17.9522 4.32411H18.9926H20.8963L22.4659 4.32846Z" fill="black"/>
</g>
<defs>
<clipPath id="clip0_890_564">
<rect width="33.9954" height="10.9985" fill="white"/>
</clipPath>
</defs>
</svg>
