<svg width="24" height="19" viewBox="0 0 24 19" fill="none" xmlns="http://www.w3.org/2000/svg">
<g clip-path="url(#clip0_890_570)">
<path d="M4.36231 18.4056V17.1813C4.36231 16.7119 4.07417 16.4059 3.58026 16.4059C3.33336 16.4059 3.06583 16.4875 2.88061 16.7528C2.73663 16.5283 2.53088 16.4059 2.2222 16.4059C2.01635 16.4059 1.81069 16.4671 1.646 16.6915V16.4467H1.21387V18.4056H1.646V17.3241C1.646 16.9773 1.83122 16.814 2.11937 16.814C2.40733 16.814 2.5515 16.9976 2.5515 17.3241V18.4056H2.98363V17.3241C2.98363 16.9773 3.18929 16.814 3.45681 16.814C3.74496 16.814 3.88894 16.9976 3.88894 17.3241V18.4056H4.36231ZM10.7619 16.4467H10.0623V15.855H9.63016V16.4467H9.23918V16.8343H9.63007V17.7322C9.63007 18.1812 9.81529 18.4464 10.3092 18.4464C10.4944 18.4464 10.7001 18.3852 10.8442 18.3036L10.7207 17.9363C10.5972 18.0179 10.4533 18.0383 10.3503 18.0383C10.1446 18.0383 10.0623 17.9159 10.0623 17.7118V16.8343H10.7619V16.4467ZM14.4247 16.4058C14.1778 16.4058 14.0132 16.5283 13.9103 16.6915V16.4467H13.4782V18.4056H13.9103V17.3037C13.9103 16.9773 14.0543 16.7936 14.3218 16.7936C14.4041 16.7936 14.507 16.814 14.5893 16.8344L14.7128 16.4263C14.6305 16.4059 14.507 16.4059 14.4247 16.4059M8.88936 16.61C8.68351 16.4672 8.39545 16.406 8.08678 16.406C7.59297 16.406 7.26376 16.6508 7.26376 17.0385C7.26376 17.3651 7.51067 17.5487 7.9428 17.6099L8.14855 17.6304C8.37493 17.6711 8.49838 17.7323 8.49838 17.8344C8.49838 17.9772 8.33378 18.0792 8.04563 18.0792C7.75748 18.0792 7.5312 17.9772 7.38712 17.8752L7.18137 18.2016C7.40774 18.3649 7.71642 18.4465 8.02501 18.4465C8.60121 18.4465 8.93051 18.1813 8.93051 17.8139C8.93051 17.467 8.66298 17.2834 8.25138 17.2222L8.04563 17.2018C7.8604 17.1813 7.71642 17.1406 7.71642 17.0182C7.71642 16.8753 7.8604 16.7937 8.08678 16.7937C8.33378 16.7937 8.58068 16.8957 8.70413 16.9569L8.88936 16.61ZM20.3717 16.406C20.1247 16.406 19.9601 16.5284 19.8572 16.6916V16.4468H19.4251V18.4057H19.8572V17.3038C19.8572 16.9774 20.0013 16.7937 20.2687 16.7937C20.3511 16.7937 20.454 16.8141 20.5363 16.8345L20.6598 16.4264C20.5775 16.406 20.454 16.406 20.3717 16.406ZM14.8569 17.4262C14.8569 18.018 15.2684 18.4465 15.9063 18.4465C16.1944 18.4465 16.4002 18.3853 16.6059 18.2221L16.4001 17.8752C16.2355 17.9976 16.0709 18.0588 15.8857 18.0588C15.5359 18.0588 15.289 17.8139 15.289 17.4262C15.289 17.059 15.5359 16.814 15.8857 16.7937C16.0709 16.7937 16.2355 16.8549 16.4001 16.9774L16.6059 16.6305C16.4002 16.4672 16.1944 16.406 15.9063 16.406C15.2684 16.406 14.8569 16.8345 14.8569 17.4262ZM18.8489 17.4262V16.4468H18.4168V16.6916C18.2727 16.5081 18.067 16.406 17.7995 16.406C17.2439 16.406 16.8118 16.8345 16.8118 17.4262C16.8118 18.018 17.2439 18.4465 17.7995 18.4465C18.0875 18.4465 18.2934 18.3445 18.4168 18.1608V18.4057H18.8489V17.4262ZM17.2644 17.4262C17.2644 17.0793 17.4908 16.7937 17.8611 16.7937C18.211 16.7937 18.458 17.059 18.458 17.4262C18.458 17.7731 18.211 18.0588 17.8611 18.0588C17.4908 18.0383 17.2644 17.7731 17.2644 17.4262ZM12.0995 16.406C11.5233 16.406 11.1117 16.814 11.1117 17.4262C11.1117 18.0384 11.5232 18.4465 12.12 18.4465C12.4081 18.4465 12.6962 18.3649 12.9226 18.1813L12.7167 17.8752C12.5521 17.9976 12.3464 18.0792 12.1406 18.0792C11.8731 18.0792 11.6056 17.9568 11.5438 17.6098H13.0049V17.4467C13.0255 16.814 12.6552 16.406 12.0995 16.406ZM12.0994 16.7732C12.3668 16.7732 12.5521 16.9366 12.5932 17.2427H11.5643C11.6055 16.9774 11.7907 16.7732 12.0994 16.7732ZM22.8203 17.4262V15.6714H22.3882V16.6916C22.2441 16.5081 22.0384 16.406 21.7708 16.406C21.2152 16.406 20.7831 16.8345 20.7831 17.4262C20.7831 18.018 21.2152 18.4465 21.7708 18.4465C22.059 18.4465 22.2647 18.3445 22.3882 18.1608V18.4057H22.8203V17.4262ZM21.2359 17.4262C21.2359 17.0793 21.4621 16.7937 21.8326 16.7937C22.1824 16.7937 22.4293 17.059 22.4293 17.4262C22.4293 17.7731 22.1824 18.0588 21.8326 18.0588C21.4621 18.0383 21.2359 17.7731 21.2359 17.4262ZM6.7903 17.4262V16.4468H6.35817V16.6916C6.21409 16.5081 6.00834 16.406 5.74082 16.406C5.18523 16.406 4.75311 16.8345 4.75311 17.4262C4.75311 18.018 5.18523 18.4465 5.74082 18.4465C6.02896 18.4465 6.23472 18.3445 6.35817 18.1608V18.4057H6.7903V17.4262ZM5.18523 17.4262C5.18523 17.0793 5.41161 16.7937 5.78197 16.7937C6.13179 16.7937 6.37879 17.059 6.37879 17.4262C6.37879 17.7731 6.13179 18.0588 5.78197 18.0588C5.41161 18.0383 5.18523 17.7731 5.18523 17.4262Z" fill="black"/>
<path d="M8.74512 1.57104H15.2271V13.1205H8.74512V1.57104Z" fill="#FF5F00"/>
<path d="M9.1571 7.34592C9.1571 4.99934 10.2683 2.91796 11.9762 1.57117C10.721 0.591734 9.13657 0 7.40806 0C3.31296 0 0 3.28521 0 7.34592C0 11.4066 3.31296 14.6918 7.40796 14.6918C9.13648 14.6918 10.7209 14.1001 11.9762 13.1206C10.2683 11.7942 9.1571 9.6925 9.1571 7.34592Z" fill="#EB001B"/>
<path d="M23.9722 7.34616C23.9722 11.4068 20.6593 14.6921 16.5643 14.6921C14.8358 14.6921 13.2513 14.1004 11.9961 13.1208C13.7246 11.7741 14.8152 9.69274 14.8152 7.34616C14.8152 4.99959 13.704 2.9182 11.9961 1.57142C13.2512 0.591978 14.8358 0.000244141 16.5643 0.000244141C20.6593 0.000244141 23.9722 3.3059 23.9722 7.34616Z" fill="#F79E1B"/>
</g>
<defs>
<clipPath id="clip0_890_570">
<rect width="23.8963" height="18.5756" fill="white"/>
</clipPath>
</defs>
</svg>
