<svg width="30" height="14" viewBox="0 0 30 14" fill="none" xmlns="http://www.w3.org/2000/svg">
<path d="M8.37761 13.4644L9.14876 11.5897L7.64271 8.0964H8.54759L9.5687 10.5711L10.5386 8.0964H11.4272L9.2375 13.4644H8.37761ZM5.26304 11.8459C4.37816 11.8459 3.45703 11.1347 3.45703 9.93615C3.45703 8.71757 4.34691 8.02266 5.27553 8.02266C5.75922 8.02266 6.19416 8.22263 6.45787 8.53634V8.0964H7.30401V11.7709H6.45787V11.2935C6.31263 11.469 6.12991 11.6097 5.92314 11.7053C5.71637 11.8009 5.49081 11.8489 5.26304 11.8459ZM0.00624915 11.7709V7.18902H1.57854C2.52716 7.18902 3.22831 7.91518 3.22831 8.82005C3.22831 9.72993 2.52591 10.4598 1.57229 10.4598H0.862383V11.7722L0.00624915 11.7709ZM5.39927 11.0685C6.02793 11.0685 6.49912 10.5598 6.49912 9.92615C6.49912 9.30499 6.02793 8.79381 5.39927 8.79381C5.25151 8.79344 5.10517 8.82264 4.96888 8.8797C4.83258 8.93675 4.70908 9.02051 4.60565 9.12603C4.50223 9.23156 4.42096 9.35671 4.36665 9.49413C4.31234 9.63154 4.28608 9.77843 4.28942 9.92615C4.28942 10.5661 4.77185 11.0685 5.39927 11.0685ZM0.862383 9.66619H1.51229C2.02223 9.66619 2.36968 9.29124 2.36968 8.82005C2.3718 8.70779 2.35098 8.59628 2.3085 8.49234C2.26601 8.38841 2.20276 8.29424 2.12261 8.21561C2.04246 8.13698 1.94709 8.07554 1.84237 8.03506C1.73764 7.99457 1.62574 7.97589 1.51354 7.98017H0.862383V9.66619ZM1.55854 4.58813C0.753648 4.58813 0 4.30067 0 3.34455V3.01334H1.14984L1.15234 3.42953C1.15234 3.66325 1.31482 3.81698 1.58229 3.81698C1.86725 3.81698 1.96348 3.67075 1.99848 3.52702C2.02715 3.42367 2.02498 3.31419 1.99223 3.21206C1.77101 2.65714 0.247466 2.40467 0.0612417 1.52854C0.0207841 1.33805 0.0178125 1.1415 0.0524929 0.949871C0.164978 0.249966 0.787393 0 1.54979 0C2.15596 0 2.99459 0.142481 2.99459 1.0761V1.37856H1.92724V1.11235C1.92724 0.878631 1.77726 0.724901 1.52729 0.724901C1.25858 0.724901 1.16609 0.877381 1.1361 1.01486C1.11983 1.08907 1.12068 1.16601 1.1386 1.23983C1.26108 1.74101 2.88836 2.00848 3.06958 2.90586C3.08708 2.99584 3.12458 3.23831 3.07208 3.60826C2.97085 4.32441 2.33468 4.58813 1.55979 4.58813H1.55854ZM15.4991 4.56563C14.7018 4.56563 13.9569 4.28192 13.9569 3.3358V3.00709H15.0955V3.41704C15.0955 3.64825 15.2567 3.80448 15.5216 3.80448C15.8054 3.80448 15.9003 3.65825 15.9353 3.51702C15.9635 3.41446 15.9613 3.30592 15.9291 3.20457C15.7104 2.65464 14.2018 2.40342 14.0181 1.53479C13.978 1.3464 13.9746 1.15205 14.0081 0.962369C14.1206 0.269963 14.7392 0.0212474 15.4929 0.0212474C16.0928 0.0212474 16.9215 0.164978 16.9215 1.08985V1.38981H15.8641V1.12485C15.8641 0.893629 15.7191 0.741149 15.4704 0.741149C15.2054 0.741149 15.1092 0.891129 15.0792 1.02861C15.0649 1.10149 15.0671 1.17663 15.0855 1.24858C15.2054 1.74601 16.8165 2.01098 16.9964 2.89836C17.0152 2.98959 17.0514 3.22956 17.0002 3.59576C16.899 4.30442 16.2678 4.56563 15.5004 4.56563H15.4991ZM19.5286 4.54938C18.7412 4.54938 18.1063 4.28692 18.0313 3.48703C18.0245 3.39428 18.0212 3.30131 18.0213 3.20831V0.132482H19.1049V3.30455C19.1049 3.35954 19.1049 3.42079 19.1149 3.46703C19.1362 3.57326 19.2299 3.77699 19.5286 3.77699C19.8261 3.77699 19.9173 3.57326 19.9385 3.46703C19.9454 3.41314 19.9487 3.35887 19.9485 3.30455V0.132482H21.0321V3.20831C21.0323 3.30173 21.029 3.39511 21.0221 3.48828C20.9472 4.28817 20.3172 4.54938 19.5286 4.54938ZM28.4724 4.50314C27.7125 4.50314 27.0376 4.22693 26.9663 3.44578C26.9569 3.35147 26.9511 3.25683 26.9488 3.16207V1.35982C26.9488 1.28358 26.9601 1.14734 26.9688 1.0761C27.0651 0.274963 27.7125 0.0187479 28.4724 0.0187479C29.2323 0.0187479 29.8972 0.272463 29.9759 1.0761C29.9897 1.21359 29.9859 1.35982 29.9859 1.35982V1.5023H28.9061V1.26108C28.9061 1.26108 28.9061 1.16109 28.8936 1.0986C28.8736 1.00486 28.7911 0.786144 28.4624 0.786144C28.1512 0.786144 28.0599 0.993615 28.0374 1.0986C28.0261 1.16551 28.0203 1.23322 28.0199 1.30107V3.25956C28.0197 3.31388 28.0231 3.36815 28.0299 3.42204C28.0499 3.53702 28.1599 3.73449 28.4699 3.73449C28.7798 3.73449 28.8861 3.53702 28.9061 3.42204C28.9129 3.36815 28.9163 3.31388 28.9161 3.25956V2.63839H28.4761V2.01348H29.9959V3.16332C29.9959 3.24331 29.9922 3.3033 29.9797 3.44578C29.9084 4.22693 29.2323 4.50314 28.4724 4.50314ZM3.79449 4.4219L4.58938 0.132482H6.49662L7.28776 4.4219H6.13542L5.56549 0.529928L5.5405 0.532428L4.95308 4.4219H3.79449ZM8.14389 4.4219L8.23638 0.132482H9.98614L10.5123 3.41329H10.5386L11.066 0.132482H12.8145L12.9082 4.4219H11.8371L11.8121 0.568673H11.7859L11.0697 4.4219H9.9824L9.26624 0.569923H9.24374L9.2175 4.42315L8.14389 4.4219ZM22.227 4.37691V0.132482H23.818L24.8054 3.49828H24.8279L24.7691 0.132482H25.8327V4.37691H24.3067L23.2456 0.893629H23.2231L23.2818 4.37691H22.227Z" fill="black"/>
</svg>
