<svg width="27" height="8" viewBox="0 0 27 8" fill="none" xmlns="http://www.w3.org/2000/svg">
<path d="M13.9619 2.55727C13.9465 3.67155 15.0441 4.29333 15.871 4.66305C16.7205 5.04234 17.0059 5.2856 17.0025 5.62484C16.9962 6.14395 16.3249 6.37308 15.6967 6.38198C14.6007 6.39756 13.9634 6.11047 13.4568 5.89334L13.062 7.58847C13.5703 7.80338 14.5115 7.9908 15.4875 7.99902C17.7785 7.99902 19.2773 6.96137 19.2854 5.35255C19.2944 3.31074 16.2074 3.19772 16.2285 2.28508C16.2358 2.00835 16.5236 1.71304 17.1542 1.63796C17.4663 1.60003 18.328 1.571 19.3049 1.98378L19.6883 0.343702C19.163 0.16818 18.4877 0.000108719 17.6471 0.000108719C15.4907 0.000108719 13.9741 1.05188 13.9619 2.55727ZM23.3727 0.141377C22.9544 0.141377 22.6018 0.365279 22.4445 0.708872L19.1719 7.87856H21.4612L21.9168 6.72335H24.7143L24.9786 7.87856H26.9963L25.2356 0.141377H23.3727ZM23.693 2.23148L24.3536 5.13688H22.5443L23.693 2.23148ZM11.1862 0.141474L9.38165 7.87846H11.5632L13.3669 0.141281L11.1862 0.141474ZM7.95896 0.141474L5.68832 5.40761L4.76981 0.929871C4.66203 0.430011 4.23642 0.141377 3.76377 0.141377H0.051989L0 0.366053C0.762014 0.517772 1.62779 0.762477 2.15233 1.02431C2.47333 1.18425 2.56486 1.32407 2.67032 1.70414L4.41 7.87856H6.71534L10.2497 0.141377L7.95896 0.141474Z" fill="url(#paint0_linear_890_576)"/>
<defs>
<linearGradient id="paint0_linear_890_576" x1="1241.13" y1="24.0448" x2="1262.38" y2="-797.559" gradientUnits="userSpaceOnUse">
<stop stop-color="#222357"/>
<stop offset="1" stop-color="#254AA5"/>
</linearGradient>
</defs>
</svg>
