<svg width="52" height="39" viewBox="0 0 52 39" fill="none" xmlns="http://www.w3.org/2000/svg">
<g clip-path="url(#clip0_364_683)">
<path d="M13.7315 16.3313V33.7594C13.7292 33.9682 13.7685 34.1753 13.8473 34.3686C13.9261 34.5619 14.0427 34.7375 14.1903 34.8851C14.3379 35.0327 14.5135 35.1493 14.7068 35.2281C14.9001 35.3068 15.1072 35.3462 15.3159 35.3438C15.5246 35.3462 15.7317 35.3068 15.9251 35.2281C16.1184 35.1493 16.294 35.0327 16.4416 34.8851C16.5892 34.7375 16.7058 34.5619 16.7846 34.3686C16.8633 34.1753 16.9027 33.9682 16.9003 33.7594" stroke="black" stroke-width="1.81071" stroke-miterlimit="10" stroke-linecap="round"/>
<path d="M16.9005 24.7813V33.7594C16.8981 33.9682 16.9375 34.1753 17.0162 34.3686C17.095 34.5619 17.2116 34.7375 17.3592 34.8851C17.5068 35.0327 17.6824 35.1493 17.8757 35.2281C18.069 35.3068 18.2761 35.3462 18.4849 35.3438C18.6936 35.3462 18.9007 35.3068 19.094 35.2281C19.2873 35.1493 19.4629 35.0327 19.6105 34.8851C19.7581 34.7375 19.8747 34.5619 19.9535 34.3686C20.0323 34.1753 20.0716 33.9682 20.0692 33.7594V16.3313" stroke="black" stroke-width="1.81071" stroke-miterlimit="10" stroke-linecap="round"/>
<path d="M13.7314 15.2752V21.0846C13.7338 21.2933 13.6946 21.5005 13.6158 21.6938C13.5371 21.8871 13.4205 22.0628 13.2728 22.2104C13.1252 22.358 12.9496 22.4746 12.7562 22.5534C12.5629 22.6321 12.3557 22.6714 12.147 22.6689C11.9382 22.6714 11.7311 22.6321 11.5378 22.5534C11.3444 22.4746 11.1688 22.358 11.0211 22.2104C10.8735 22.0628 10.7569 21.8871 10.6782 21.6938C10.5994 21.5005 10.5601 21.2933 10.5626 21.0846V15.2752C10.5626 14.4348 10.8965 13.6288 11.4907 13.0346C12.085 12.4403 12.891 12.1064 13.7314 12.1064H20.0689C20.9093 12.1064 21.7153 12.4403 22.3095 13.0346C22.9038 13.6288 23.2376 14.4348 23.2376 15.2752V21.0846C23.2401 21.2933 23.2008 21.5005 23.1221 21.6938C23.0433 21.8871 22.9267 22.0628 22.7791 22.2104C22.6315 22.358 22.4558 22.4746 22.2625 22.5534C22.0691 22.6321 21.862 22.6714 21.6532 22.6689C21.4445 22.6714 21.2373 22.6321 21.044 22.5534C20.8507 22.4746 20.675 22.358 20.5274 22.2104C20.3798 22.0628 20.2632 21.8871 20.1844 21.6938C20.1057 21.5005 20.0664 21.2933 20.0689 21.0846V15.2752" stroke="black" stroke-width="1.81071" stroke-miterlimit="10" stroke-linecap="round"/>
<path d="M16.9004 8.9375C18.3588 8.9375 19.541 7.75525 19.541 6.29688C19.541 4.8385 18.3588 3.65625 16.9004 3.65625C15.442 3.65625 14.2598 4.8385 14.2598 6.29688C14.2598 7.75525 15.442 8.9375 16.9004 8.9375Z" stroke="black" stroke-width="1.81071" stroke-miterlimit="10" stroke-linecap="round"/>
</g>
<path fill-rule="evenodd" clip-rule="evenodd" d="M33.7994 8.9375C34.3022 8.9375 34.7845 8.72349 35.14 8.34256C35.4955 7.96163 35.6953 7.44497 35.6953 6.90625C35.6953 6.36753 35.4955 5.85087 35.14 5.46994C34.7845 5.08901 34.3022 4.875 33.7994 4.875C33.2966 4.875 32.8144 5.08901 32.4589 5.46994C32.1033 5.85087 31.9036 6.36753 31.9036 6.90625C31.9036 7.44497 32.1033 7.96163 32.4589 8.34256C32.8144 8.72349 33.2966 8.9375 33.7994 8.9375ZM33.7994 10.5625C34.7045 10.5625 35.5725 10.1773 36.2124 9.49161C36.8524 8.80593 37.2119 7.87595 37.2119 6.90625C37.2119 5.93655 36.8524 5.00657 36.2124 4.32089C35.5725 3.63521 34.7045 3.25 33.7994 3.25C32.8944 3.25 32.0264 3.63521 31.3864 4.32089C30.7465 5.00657 30.3869 5.93655 30.3869 6.90625C30.3869 7.87595 30.7465 8.80593 31.3864 9.49161C32.0264 10.1773 32.8944 10.5625 33.7994 10.5625ZM31.4941 13.8125C30.4552 13.8125 29.7515 14.3528 29.2896 15.0564C28.8619 15.7072 28.6094 16.5425 28.4039 17.264C28.2522 17.8002 28.2242 17.9124 28.1529 18.2057L28.1506 18.2146C28.0513 18.6233 27.8738 19.3489 27.2444 21.7311C27.1428 22.1187 27.3445 22.5826 27.8018 22.7167C28.2719 22.8556 28.708 22.5526 28.8164 22.1439C29.5065 19.5276 29.6551 18.9069 29.7295 18.5965V18.5941C29.7886 18.3463 29.8098 18.2609 29.9676 17.7052C30.1799 16.9577 30.3771 16.3589 30.6478 15.9469L30.6493 15.9437L30.6561 15.9347L31.9362 16.6441L28.9332 28.275C29.828 28.5301 31.2499 28.8438 33.8002 28.8438C36.2708 28.8438 37.8194 28.5488 38.674 28.3034L35.6634 16.6441L36.9427 15.9323L36.9518 15.9469C37.2226 16.3589 37.4197 16.9577 37.6321 17.706C37.7898 18.2617 37.811 18.3463 37.8702 18.5941V18.5965C37.9445 18.9069 38.0931 19.5284 38.7832 22.1439C38.8916 22.5526 39.3269 22.8556 39.7979 22.7167C40.2551 22.5826 40.4576 22.1187 40.3552 21.7311C40.0457 20.5772 39.7474 19.4199 39.4604 18.2593L39.4467 18.2057C39.3755 17.9124 39.3482 17.7994 39.1957 17.2632C38.991 16.5425 38.7377 15.7072 38.31 15.0564C37.8474 14.3528 37.1444 13.8125 36.1063 13.8125H31.4941ZM40.8504 17.7889C40.9467 18.1837 41.1211 18.9004 41.7475 21.2704C41.83 21.5798 41.8545 21.9036 41.8196 22.2232C41.7846 22.5427 41.691 22.8517 41.5441 23.1323C41.3972 23.4129 41.1999 23.6596 40.9636 23.8581C40.7272 24.0566 40.4566 24.203 40.1672 24.2889C39.8391 24.3844 39.4953 24.4 39.1609 24.3344L40.0807 27.8972C40.2862 28.6934 39.9184 29.6148 39.1176 29.8529C38.1379 30.1454 36.4445 30.4688 33.8002 30.4688C31.1187 30.4688 29.5755 30.1356 28.5639 29.8464C27.7601 29.6164 27.3157 28.6861 27.5386 27.8232L28.4395 24.3344C28.1119 24.3994 27.7684 24.3872 27.4325 24.2889C27.1431 24.203 26.8724 24.0566 26.6361 23.8581C26.3997 23.6596 26.2024 23.4129 26.0555 23.1323C25.9086 22.8517 25.815 22.5427 25.7801 22.2232C25.7452 21.9036 25.7696 21.5798 25.8521 21.2704C26.4785 18.9004 26.6529 18.1846 26.7492 17.7889V17.7864C26.8281 17.4647 26.8607 17.3339 27.0207 16.7708C27.2201 16.0696 27.5326 14.989 28.1195 14.0944C28.8096 13.0422 29.9221 12.1875 31.4941 12.1875H36.1063C37.6776 12.1875 38.7893 13.0422 39.4809 14.0944C40.0678 14.9882 40.3795 16.0688 40.5789 16.7708C40.7314 17.3071 40.7685 17.4509 40.839 17.7418L40.8504 17.7889ZM30.0078 31.6989V34.4403C30.008 34.7353 30.1081 35.0203 30.2896 35.2423C30.4711 35.4643 30.7215 35.6082 30.9945 35.6473C31.2675 35.6864 31.5445 35.618 31.774 35.4549C32.0035 35.2918 32.17 35.045 32.2426 34.7604L32.941 32.0182C31.9589 31.9641 30.98 31.8575 30.0078 31.6989ZM35.4147 32.0125L36.1146 34.7604C36.1872 35.045 36.3537 35.2918 36.5832 35.4549C36.8127 35.618 37.0897 35.6864 37.3627 35.6473C37.6357 35.6082 37.8861 35.4643 38.0676 35.2423C38.2491 35.0203 38.3492 34.7353 38.3494 34.4403V31.6875C37.3765 31.8455 36.3972 31.954 35.4147 32.0125Z" fill="black"/>
<defs>
<clipPath id="clip0_364_683">
<rect width="33.8" height="33.8" fill="white" transform="translate(0 2.6001)"/>
</clipPath>
</defs>
</svg>
