<svg width="28" height="22" viewBox="0 0 28 22" fill="none" xmlns="http://www.w3.org/2000/svg">
<g clip-path="url(#clip0_364_671)">
<path d="M6.47266 7.37109H5.94336C4.69675 7.37119 3.53883 8.00955 2.87891 9.06543L2.87793 9.06641L0.657227 12.5967V12.5977C0.399353 13.0092 0.523066 13.5471 0.929688 13.8037C1.33593 14.06 1.8789 13.9374 2.13574 13.5303L2.68848 12.6504L3.6123 11.1826V20.6289C3.6123 21.1133 4.0029 21.5039 4.4873 21.5039C4.97158 21.5038 5.3623 21.1132 5.3623 20.6289V16.0039H7.0498V17.1875L7.05371 20.624V20.625C7.05371 21.1094 7.44435 21.4999 7.92871 21.5C8.41312 21.5 8.80371 21.1094 8.80371 20.625V11.1787L9.72656 12.6455L10.2812 13.5264L10.2822 13.5273C10.538 13.9353 11.0782 14.0573 11.4863 13.7998C11.8934 13.543 12.0159 13.0009 11.7598 12.5947V12.5938L9.53809 9.06641C8.87295 8.0123 7.71338 7.37126 6.47266 7.37109ZM19.96 7.375C18.6117 7.37503 17.3316 7.96815 16.4619 8.9873L16.2939 9.19629L13.7627 12.5352C13.47 12.9209 13.5477 13.4702 13.9316 13.7588C14.3201 14.0505 14.8693 13.9732 15.1562 13.5918L15.1572 13.5898L16.3906 11.9648L17.2637 12.4258L15.9268 16.4385V16.4404C15.8866 16.5598 15.9756 16.6873 16.1055 16.6875H17.3711V20.625C17.3711 21.1094 17.7617 21.5 18.2461 21.5C18.7303 21.4997 19.1211 21.1092 19.1211 20.625V16.6875H20.8086V20.625C20.8086 21.1094 21.1992 21.5 21.6836 21.5C22.1374 21.4998 22.509 21.1566 22.5537 20.7148V16.6875H23.8184C23.9423 16.6875 24.0361 16.565 23.9961 16.4385L22.6572 12.4258L23.5293 11.9648L24.7627 13.5898C25.0553 13.9753 25.6054 14.0487 25.9873 13.7598C26.371 13.4692 26.4474 12.9156 26.1582 12.5371L26.1572 12.5352L23.626 9.19629C22.7583 8.04973 21.3979 7.375 19.96 7.375ZM19.96 0.5C19.3633 0.500027 18.7911 0.737247 18.3691 1.15918C17.9472 1.58113 17.71 2.15329 17.71 2.75C17.71 3.34671 17.9472 3.91887 18.3691 4.34082C18.7911 4.76275 19.3633 4.99997 19.96 5C20.5567 5 21.1288 4.76274 21.5508 4.34082C21.9727 3.91886 22.21 3.34674 22.21 2.75C22.21 2.15326 21.9727 1.58114 21.5508 1.15918C21.1288 0.737255 20.5567 0.5 19.96 0.5ZM6.20996 0.5C5.61326 0.500026 5.04107 0.737246 4.61914 1.15918C4.19721 1.58113 3.95996 2.15329 3.95996 2.75C3.95996 3.34671 4.19721 3.91887 4.61914 4.34082C5.04107 4.76275 5.61326 4.99997 6.20996 5C6.80668 5 7.37883 4.76275 7.80078 4.34082C8.22274 3.91886 8.45996 3.34674 8.45996 2.75C8.45996 2.15326 8.22274 1.58114 7.80078 1.15918C7.37883 0.737254 6.80667 0.5 6.20996 0.5Z" stroke="black"/>
</g>
<defs>
<clipPath id="clip0_364_671">
<rect width="27.5" height="22" fill="white"/>
</clipPath>
</defs>
</svg>
