<svg width="24" height="24" viewBox="0 0 24 24" fill="none" xmlns="http://www.w3.org/2000/svg">
<path d="M19.9502 10.896C19.7286 12.8493 18.7957 14.6526 17.3294 15.962C15.8631 17.2713 13.966 17.9951 12.0002 17.9951C10.0344 17.9951 8.13738 17.2713 6.67108 15.962C5.20477 14.6526 4.27183 12.8493 4.05022 10.896C3.8159 10.988 3.56219 11.0196 3.31246 10.9878C3.06274 10.956 2.82504 10.8618 2.62125 10.714C2.41747 10.5662 2.25417 10.3695 2.14639 10.142C2.03861 9.9145 1.98982 9.66353 2.00451 9.41222C2.01921 9.16091 2.09692 8.91734 2.23048 8.70395C2.36404 8.49056 2.54916 8.31422 2.76878 8.19117C2.9884 8.06813 3.23546 8.00234 3.48719 7.99986C3.73892 7.99738 3.98722 8.0583 4.20922 8.177C4.62139 6.41992 5.61536 4.85375 7.02976 3.73274C8.44417 2.61173 10.196 2.00171 12.0007 2.00171C13.8055 2.00171 15.5573 2.61173 16.9717 3.73274C18.3861 4.85375 19.3801 6.41992 19.7922 8.177C20.0142 8.0583 20.2625 7.99738 20.5143 7.99986C20.766 8.00234 21.013 8.06813 21.2327 8.19117C21.4523 8.31422 21.6374 8.49056 21.771 8.70395C21.9045 8.91734 21.9822 9.16091 21.9969 9.41222C22.0116 9.66353 21.9628 9.9145 21.8551 10.142C21.7473 10.3695 21.584 10.5662 21.3802 10.714C21.1764 10.8618 20.9387 10.956 20.689 10.9878C20.4393 11.0196 20.1845 10.988 19.9502 10.896Z" stroke="black" stroke-width="1.5" stroke-linejoin="round"/>
<path d="M12 15C12.2652 15 12.5196 14.8946 12.7071 14.7071C12.8946 14.5196 13 14.2652 13 14H11C11 14.2652 11.1054 14.5196 11.2929 14.7071C11.4804 14.8946 11.7348 15 12 15Z" stroke="black" stroke-width="1.5" stroke-linejoin="round"/>
<path d="M18 22C18 20.208 17.214 18.6 15.969 17.5M6 22C6 20.208 6.786 18.6 8.031 17.5M12 2C13 2 14 2.895 14 4C14 5.105 13 6 12 6C11.4606 5.99113 10.9369 5.81658 10.5 5.5" stroke="black" stroke-width="1.5" stroke-linecap="round"/>
<path d="M9 10V10.01M15 10V10.01" stroke="black" stroke-width="2" stroke-linecap="round"/>
</svg>
